<?xml version="1.0" standalone="no"?>
<!DOCTYPE svg PUBLIC "-//W3C//DTD SVG 20010904//EN"
 "http://www.w3.org/TR/2001/REC-SVG-20010904/DTD/svg10.dtd">
<svg version="1.0" xmlns="http://www.w3.org/2000/svg"
 width="586.000000pt" height="586.000000pt" viewBox="0 0 586.000000 586.000000"
 preserveAspectRatio="xMidYMid meet">
<metadata>
Created by potrace 1.11, written by Peter Selinger 2001-2013
</metadata>
<g transform="translate(0.000000,586.000000) scale(0.100000,-0.100000)"
fill="#000000" stroke="none">
<path d="M4615 5551 c-11 -5 -29 -19 -40 -31 -25 -29 -26 -13 24 -1375 21
-577 38 -1051 37 -1051 0 -1 -121 -5 -268 -9 l-268 -7 0 178 c-1 414 -76 673
-288 990 -96 143 -146 202 -209 243 -81 54 -153 36 -186 -48 -35 -87 -47 -325
-25 -495 9 -71 16 -95 34 -113 30 -30 59 -29 91 3 22 22 25 32 20 67 -3 23 -9
74 -12 112 l-7 70 26 -30 c55 -63 170 -244 222 -350 79 -162 122 -332 139
-551 l7 -81 -199 -7 c-109 -3 -261 -9 -339 -12 l-141 -6 -6 193 c-6 207 -23
314 -73 465 -192 580 -733 967 -1589 1139 -230 46 -443 72 -787 95 -262 18
-292 18 -319 4 -39 -20 -53 -57 -39 -100 17 -52 83 -125 254 -284 148 -137
175 -170 142 -170 -19 0 -46 -39 -46 -65 0 -12 9 -31 20 -43 20 -21 29 -22
166 -22 168 0 195 8 214 66 11 32 9 41 -19 97 -30 59 -65 104 -231 287 l-75
83 65 -7 c864 -94 1396 -366 1629 -834 113 -226 161 -529 135 -845 l-7 -77
-74 0 c-69 0 -77 -2 -104 -30 -23 -23 -29 -35 -24 -52 12 -38 34 -48 112 -48
52 0 73 -4 73 -12 0 -35 -35 -208 -67 -333 -183 -718 -614 -1352 -1168 -1718
-336 -222 -691 -337 -1119 -363 -96 -5 -122 -10 -137 -25 -22 -22 -25 -72 -5
-91 11 -12 11 -17 0 -33 -20 -27 -17 -72 6 -95 24 -24 82 -26 255 -10 472 44
936 217 1360 508 726 497 1275 1298 1419 2069 l12 68 195 -2 c107 0 263 -4
347 -8 l153 -7 -6 -47 c-30 -211 -89 -405 -220 -711 -77 -179 -89 -214 -93
-277 -9 -135 45 -177 249 -195 151 -13 445 -6 477 11 32 17 46 58 31 92 -12
31 -56 51 -154 70 -65 12 -107 33 -144 73 -21 22 -24 34 -22 103 1 43 10 166
21 273 11 107 26 285 35 395 9 109 18 201 20 203 5 5 545 -14 550 -20 1 -1 21
-523 44 -1158 45 -1266 47 -1314 60 -1338 32 -59 118 -90 164 -59 13 8 29 28
35 44 6 17 29 510 58 1258 25 677 49 1233 53 1236 3 4 129 2 280 -4 l274 -11
44 24 c112 59 116 223 6 287 l-44 25 -274 -7 -275 -7 0 60 c0 33 16 459 35
947 19 487 32 898 29 913 -13 54 -38 87 -229 301 -206 232 -226 248 -290 222z"/>
<path d="M1490 2780 l0 -1701 29 16 c97 50 243 196 334 333 l37 57 0 1497 0
1498 -200 0 -200 0 0 -1700z"/>
</g>
</svg>
