<svg xmlns="http://www.w3.org/2000/svg" xmlns:xlink="http://www.w3.org/1999/xlink" width="48" height="49" viewBox="0 0 48 49">
  <defs>
    <rect id="logoedit-a" width="41.118" height="41.034" x=".379" y=".967" rx="4.953"/>
  </defs>
  <g fill="none" fill-rule="evenodd" transform="translate(3 3)">
    <g transform="translate(.377 .039)">
      <mask id="logoedit-b" fill="#fff">
        <use xlink:href="#logoedit-a"/>
      </mask>
      <rect width="44.168" height="44.084" x="-1.146" y="-.558" stroke="#333232" stroke-width="3.05" rx="4.953"/>
      <path fill="#000" d="M17.0428047,37.940612 C24.615475,37.8902762 32.3463966,30.8825769 32.3463966,22.1009028 C32.3463966,13.3192286 26.6287758,6.4838684 19.0560878,6.4838684 C15.8162152,6.4838684 12.5763425,6.4838684 9.33646987,6.4838684 C6.8838063,6.4838684 4.89552962,8.47214508 4.89552962,10.9248087 L4.89552962,33.5406588 C4.89553665,35.9933185 6.88381018,37.981592 9.33646987,37.981592 C9.3433688,37.981592 9.35026773,37.981576 9.35716658,37.9815438 C12.7650553,37.9656614 15.3269347,37.9520174 17.0428047,37.940612 Z" mask="url(#logoedit-b)"/>
      <g fill="#FFF" mask="url(#logoedit-b)">
        <g transform="translate(-1 -2.988)">
          <path fill-rule="nonzero" stroke="#FFF" stroke-linecap="round" stroke-width="1.17" d="M0.0178444277,45.657654 C13.218913,45.657654 24.7360496,32.3194227 24.7360496,21.2927425 C24.7360496,11.5936773 15.7849395,7.83424125 4.68855385,7.29530721 C3.16967274,7.22153754 8.86061069,11.8214367 7.2711988,11.8214367 C5.68178704,11.8214367 4.4882022,11.8470312 6.07761396,11.8470312 C7.66702572,11.8470312 1.04817929,7.08521065 2.56706042,7.15898033 C13.663446,7.69791436 21.2801824,10.8364554 21.2801824,20.5355207 C21.2801824,31.5622008 13.218913,44.6389728 0.0178444277,44.6389728"/>
          <path fill-rule="nonzero" stroke="#FFF" stroke-linecap="round" stroke-width="1.17" d="M.0178444277 45.657654C13.218913 45.657654 24.7360496 32.3194227 24.7360496 21.2927425 24.7360496 11.5936773 15.7849395 7.83424125 4.68855385 7.29530721 3.16967274 7.22153754 8.86061069 11.8214367 7.2711988 11.8214367 5.68178704 11.8214367 4.4882022 11.8470312 6.07761396 11.8470312 7.66702572 11.8470312 1.04817929 7.08521065 2.56706042 7.15898033 13.663446 7.69791436 21.2801824 10.8364554 21.2801824 20.5355207 21.2801824 31.5622008 13.218913 44.6389728.0178444277 44.6389728M27.1287434 13.4819408C27.1464246 11.5219574 27.3760848 10.6328893 27.8177238 10.8147367 28.4801825 11.0875077 29.0850168 11.9125359 30.0988134 13.4819408 31.3297075 15.387423 32.0101163 17.7299717 32.0101163 20.6013468 32.0101163 23.6583798 31.7089777 27.2408152 31.314834 30.8770965 31.2755767 31.3256972 31.2588834 31.724671 31.2647543 32.0740177 31.2751049 32.6887614 32.2588352 33.4621842 32.8220253 33.5569919 34.9530591 33.9157312 34.0427922 33.9342676 32.0101163 33.926941 28.9000994 33.9157312 28.0973129 33.9730045 29.27452 31.375604 30.7174616 28.1918847 31.4864451 25.9635961 31.5412049 22.9070288 31.5926389 20.036091 30.9542951 17.6823294 29.7577208 15.7562074 28.772191 14.169803 28.1822274 13.3346159 27.5247556 13.0506221 27.0864411 12.8612928 27.0132153 13.6997287 27.3050782 15.5659298"/>
          <path d="M37.8328427,1.83804643 L40.7877867,5.15767906 C41.0962225,5.50418087 41.2583988,5.95671573 41.2402593,6.42025331 L39.7240571,45.1653921 C39.7072034,45.596073 39.3444049,45.9315462 38.913724,45.9146925 C38.8768845,45.9132508 38.8401935,45.9092005 38.8039266,45.9025719 C38.2870323,45.8080979 37.9053526,45.366919 37.8862235,44.8418102 L36.3414712,2.43696789 C36.3243004,1.96561447 36.6924881,1.56958735 37.1638416,1.55241657 C37.4182691,1.54314811 37.6635651,1.64787716 37.8328427,1.83804643 Z"/>
          <path d="M32.5572956,9.53976815 C33.3239832,9.53976815 33.9455063,10.1612912 33.9455063,10.9279788 C33.9455063,10.9447669 33.9452017,10.9615537 33.9445928,10.9783308 L33.0169791,36.5358948 C33.0078322,36.7879077 32.7961205,36.9847895 32.5441076,36.9756427 C32.520467,36.9747846 32.4969288,36.9720907 32.4737057,36.9675853 C32.1673545,36.9081512 31.9430451,36.6444236 31.933548,36.3325049 L31.1615944,10.9786113 C31.138125,10.2077868 31.743976,9.56388434 32.5148005,9.54041493 C32.5289615,9.53998377 32.5431281,9.53976815 32.5572956,9.53976815 Z" transform="rotate(90 32.557 23.304)"/>
        </g>
      </g>
    </g>
    <path fill="#FFF" d="M10.0903646,7.57399131 L13.4830046,7.57399131 L13.4830046,32.628 C13.0036458,33.4240546 12.4812465,34.1085346 11.9158065,34.68144 C11.3503665,35.2543454 10.7418858,35.7156761 10.0903646,36.0654322 L10.0903646,7.57399131 Z"/>
  </g>
</svg>
