<svg xmlns="http://www.w3.org/2000/svg" xmlns:xlink="http://www.w3.org/1999/xlink" width="828" height="340" viewBox="0 0 828 340">
  <defs>
    <linearGradient id="5-a" x1="50%" x2="50%" y1="0%" y2="100%">
      <stop offset="0%" stop-color="#839DC1"/>
      <stop offset="100%" stop-color="#C7DFDF" stop-opacity=".36"/>
    </linearGradient>
    <path id="5-c" d="M446.055084,236.046953 C453.714888,229.151338 458.886184,218.621523 455.712879,208.280123 C452.546079,197.959938 443.06071,191.078481 433.267386,187.655889 C427.712886,185.714699 421.90182,184.637735 416.092968,183.791733 C409.778331,182.872072 403.435785,182.118567 397.096259,181.393483 C371.426632,178.457506 345.660491,176.663966 319.797838,176.012863 C307.036323,175.691458 294.277134,175.699198 281.513817,175.884469 C270.115282,176.049949 258.110514,176.04582 247.536237,171.201255 C239.313284,167.433943 231.850077,160.579954 229.558851,151.573176 C226.913994,141.176215 231.792411,130.588372 238.790422,123.058536 C242.479135,119.08949 246.790292,115.748919 251.23763,112.677216 C256.062338,109.344868 261.055294,106.248515 266.156383,103.358201 C276.203238,97.6683633 286.70695,92.8260042 297.558397,88.881431 C302.911528,86.934962 308.344194,85.2556508 313.823985,83.7064304 C318.451125,82.3982606 323.092679,81.088226 327.564654,79.3058888 C336.20972,75.8603306 344.432274,70.0239518 346.630403,60.4556924 C348.713704,51.3872834 345.201122,41.542811 339.043103,34.806053 C331.918719,27.012113 321.176517,23.5954928 310.877874,23.042693 C299.315937,22.42208 288.02044,25.315733 277.153226,28.98815 C265.562599,32.90507 254.221839,37.4088308 242.386353,40.5815024 C230.649788,43.7245344 218.686184,45.9483806 206.604142,47.2328534 C200.689588,47.8626476 194.596262,48.5738 188.646513,48.0916484 C183.660079,47.6875622 178.699123,46.2210734 175.024199,42.6821996 C171.873141,39.6477962 169.996026,35.4775196 170.641373,31.0766 C170.671878,30.8685808 166.363947,28.5293046 160.26,25.5199795 C156.95569,23.8909118 153.872148,21.7593898 148.96386,20.3605581 C128.09846,14.4140483 8.99838256,8.25877134 8.86,8.72718704 C6.84572649,15.5453683 -8.41750309,10.383071 7.76,10.383071 C14.4841379,10.383071 128.433459,17.0659968 140.891547,20.3605581 C145.785076,21.6546595 150.588409,22.562234 154.321684,24.4917913 C158.675496,26.7420757 161.740798,30.0039709 164.36,31.0766 C175.117706,35.482151 177.753108,43.4186911 179.199709,44.2338644 C184.38594,47.1563588 190.696822,47.1603404 196.470865,46.8261044 C208.990609,46.069944 221.425624,44.2723451 233.646963,41.4519482 C245.655822,38.7091004 257.235768,34.7880896 268.802605,30.5995346 C279.7881,26.621492 291.019198,22.7389028 302.755443,21.8772728 C312.938809,21.1296434 323.651136,22.6132052 332.522632,27.9349874 C340.319458,32.6121074 346.052857,40.4120198 347.879727,49.362602 C349.664911,58.1089424 347.192472,66.912302 340.571727,73.0158008 C333.716709,79.3352594 324.317433,82.0370186 315.557976,84.5253464 C304.448039,87.6813818 293.576326,91.3705442 283.053134,96.1606484 C272.386596,101.002292 262.156793,106.753464 252.477092,113.350429 C243.133667,119.735387 233.912798,127.769273 230.957728,139.159959 C229.581225,144.465873 229.835375,150.093449 232.1386,155.105095 C234.186541,159.561265 237.559356,163.309665 241.48851,166.200877 C247.738317,170.799718 258.576307,173.618215 274.002478,174.656368 C290.960348,174.475717 303.680059,174.454997 312.161612,174.594208 C338.089276,175.019743 363.963884,176.597914 389.785437,179.328721 C396.255677,180.013584 407.279827,176.590872 413.733712,177.42 C419.538776,178.16592 419.538776,181.393483 426.50859,184.411456 C435.817883,188.442437 446.531624,191.295957 452.839138,199.900216 C455.63858,203.629753 457.372865,208.049401 457.856916,212.687506 C458.298478,217.527519 457.113579,222.376612 454.925248,226.682255 C450.08167,236.212231 441.009124,242.273856 431.374433,246.256233 C428.208563,247.564804 423.062406,248.682691 415.935962,249.609894 L415.935962,249.609893 C414.749293,249.764287 413.556567,249.867895 412.36105,249.920433 C340.593136,253.074301 304.965817,254.574156 305.479093,254.42 C316.287549,251.173925 437.483169,243.763672 446.055084,236.046953 Z"/>
    <filter id="5-b" width="107.4%" height="113.8%" x="-3.7%" y="-5.3%" filterUnits="objectBoundingBox">
      <feOffset dy="4" in="SourceAlpha" result="shadowOffsetOuter1"/>
      <feGaussianBlur in="shadowOffsetOuter1" result="shadowBlurOuter1" stdDeviation="5"/>
      <feColorMatrix in="shadowBlurOuter1" values="0 0 0 0 0.631372549   0 0 0 0 0.749019608   0 0 0 0 0.77254902  0 0 0 1 0"/>
    </filter>
    <path id="5-e" d="M260.517538,97.7760986 L260.517538,97.7760986 C252.690327,97.7752034 246.345463,91.4299899 246.345,83.6027786 C246.344794,81.0391994 246.346638,79.0791644 246.350535,78.8004146 C246.469959,70.019642 248.681352,61.3939003 252.801269,53.6387396 C246.032358,62.9051559 242.310482,74.0461369 242.150535,85.5204146 C242.146638,85.7991644 242.144984,87.7591994 242.144984,90.3227786 C242.145463,98.1499899 248.490327,104.495203 256.317538,104.496099 L256.317538,104.496099 C262.664197,104.493692 268.236861,100.27565 269.96241,94.1680676 C267.367316,96.4951975 264.003228,97.7803114 260.517538,97.7760986 Z"/>
    <filter id="5-d" width="135.9%" height="125.6%" x="-18%" y="-7.9%" filterUnits="objectBoundingBox">
      <feOffset dy="1" in="SourceAlpha" result="shadowOffsetOuter1"/>
      <feGaussianBlur in="shadowOffsetOuter1" result="shadowBlurOuter1" stdDeviation="1"/>
      <feColorMatrix in="shadowBlurOuter1" result="shadowMatrixOuter1" values="0 0 0 0 0.331607351   0 0 0 0 0.454703511   0 0 0 0 0.454703511  0 0 0 1 0"/>
      <feOffset dy="4" in="SourceAlpha" result="shadowOffsetOuter2"/>
      <feGaussianBlur in="shadowOffsetOuter2" result="shadowBlurOuter2" stdDeviation="1"/>
      <feColorMatrix in="shadowBlurOuter2" result="shadowMatrixOuter2" values="0 0 0 0 0.231372549   0 0 0 0 0.639215686   0 0 0 0 0.733333333  0 0 0 0.28400896 0"/>
      <feMerge>
        <feMergeNode in="shadowMatrixOuter1"/>
        <feMergeNode in="shadowMatrixOuter2"/>
      </feMerge>
    </filter>
    <path id="5-g" d="M298.65613,60.4258892 C307.476882,60.8471671 315.528139,65.5738617 320.194947,73.0707973 C324.861755,80.5677328 325.548818,89.8786047 322.032985,97.9793492 C328.876128,89.9425285 330.3818,78.6443083 325.882179,69.0958795 C321.382557,59.5474506 311.71068,53.5165619 301.156393,53.6781422 C290.602105,53.8397225 281.119377,60.1638575 276.914158,69.8455526 C282.30689,63.5016341 290.339683,60.0214433 298.65613,60.4258892 L298.65613,60.4258892 Z"/>
    <filter id="5-f" width="119.4%" height="129.3%" x="-9.7%" y="-9%" filterUnits="objectBoundingBox">
      <feOffset dy="1" in="SourceAlpha" result="shadowOffsetOuter1"/>
      <feGaussianBlur in="shadowOffsetOuter1" result="shadowBlurOuter1" stdDeviation="1"/>
      <feColorMatrix in="shadowBlurOuter1" result="shadowMatrixOuter1" values="0 0 0 0 0.331607351   0 0 0 0 0.454703511   0 0 0 0 0.454703511  0 0 0 1 0"/>
      <feOffset dy="4" in="SourceAlpha" result="shadowOffsetOuter2"/>
      <feGaussianBlur in="shadowOffsetOuter2" result="shadowBlurOuter2" stdDeviation="1"/>
      <feColorMatrix in="shadowBlurOuter2" result="shadowMatrixOuter2" values="0 0 0 0 0.231372549   0 0 0 0 0.639215686   0 0 0 0 0.733333333  0 0 0 0.28400896 0"/>
      <feMerge>
        <feMergeNode in="shadowMatrixOuter1"/>
        <feMergeNode in="shadowMatrixOuter2"/>
      </feMerge>
    </filter>
    <path id="5-i" d="M303.016494,185.976099 L303.016494,185.976099 C295.038523,185.977878 288.534149,179.579633 288.404694,171.602712 C288.226891,160.49107 288.134811,146.800746 288.134811,145.236099 C288.132336,141.429757 288.680302,137.64306 289.761697,133.993564 L289.756569,133.992304 C290.395144,132.160488 291.166366,130.377644 292.064108,128.657938 C289.308215,132.330517 287.114952,136.39325 285.556569,140.712304 L285.561697,140.713564 C284.480302,144.36306 283.932336,148.149757 283.934802,151.956099 C283.934802,153.520746 284.026891,167.21107 284.204694,178.322712 C284.334149,186.299633 290.838523,192.697878 298.816494,192.696099 L298.816494,192.696099 C305.310524,192.69496 311.02515,188.409491 312.845271,182.175745 C310.158577,184.625524 306.652387,185.981213 303.016494,185.976099 L303.016494,185.976099 Z"/>
    <filter id="5-h" width="134.6%" height="120.3%" x="-17.3%" y="-6.2%" filterUnits="objectBoundingBox">
      <feOffset dy="1" in="SourceAlpha" result="shadowOffsetOuter1"/>
      <feGaussianBlur in="shadowOffsetOuter1" result="shadowBlurOuter1" stdDeviation="1"/>
      <feColorMatrix in="shadowBlurOuter1" result="shadowMatrixOuter1" values="0 0 0 0 0.331607351   0 0 0 0 0.454703511   0 0 0 0 0.454703511  0 0 0 1 0"/>
      <feOffset dy="4" in="SourceAlpha" result="shadowOffsetOuter2"/>
      <feGaussianBlur in="shadowOffsetOuter2" result="shadowBlurOuter2" stdDeviation="1"/>
      <feColorMatrix in="shadowBlurOuter2" result="shadowMatrixOuter2" values="0 0 0 0 0.231372549   0 0 0 0 0.639215686   0 0 0 0 0.733333333  0 0 0 0.28400896 0"/>
      <feMerge>
        <feMergeNode in="shadowMatrixOuter1"/>
        <feMergeNode in="shadowMatrixOuter2"/>
      </feMerge>
    </filter>
    <linearGradient id="5-j" x1="50%" x2="50%" y1="0%" y2="100%">
      <stop offset="0%" stop-color="#C4D5E0"/>
      <stop offset="100%" stop-color="#D4E2E8"/>
    </linearGradient>
    <linearGradient id="5-k" x1="46.756%" x2="47.974%" y1="72.698%" y2="94.169%">
      <stop offset="0%" stop-color="#697F8D"/>
      <stop offset="100%" stop-color="#7F98A6"/>
    </linearGradient>
    <linearGradient id="5-l" x1="50.88%" x2="54.173%" y1="59.672%" y2="96.108%">
      <stop offset="0%" stop-color="#9BB8C6"/>
      <stop offset="100%" stop-color="#919EA7"/>
    </linearGradient>
    <linearGradient id="5-m" x1="50%" x2="50%" y1=".713%" y2="100%">
      <stop offset="0%" stop-color="#FEE5CF"/>
      <stop offset="83.434%" stop-color="#F5BC97"/>
      <stop offset="100%" stop-color="#FCC6A2"/>
    </linearGradient>
    <linearGradient id="5-n" x1="50%" x2="50%" y1="0%" y2="50%">
      <stop offset="0%" stop-color="#A87042"/>
      <stop offset="100%" stop-color="#E6925D"/>
    </linearGradient>
    <linearGradient id="5-o" x1="50%" x2="50%" y1="0%" y2="100%">
      <stop offset="0%" stop-color="#D79871"/>
      <stop offset="100%" stop-color="#FFC7A4"/>
    </linearGradient>
    <linearGradient id="5-p" x1="50%" x2="50%" y1="0%" y2="50%">
      <stop offset="0%" stop-color="#FBE0C9"/>
      <stop offset="100%" stop-color="#E6925D"/>
    </linearGradient>
    <linearGradient id="5-q" x1="92.777%" x2="3.033%" y1="50.786%" y2="48.737%">
      <stop offset="0%" stop-color="#FEE5CF"/>
      <stop offset="100%" stop-color="#E6925D"/>
    </linearGradient>
    <linearGradient id="5-r" x1="50%" x2="50%" y1="0%" y2="100%">
      <stop offset="0%" stop-color="#181360"/>
      <stop offset="33.768%" stop-color="#3F31DB"/>
      <stop offset="100%" stop-color="#21166C"/>
    </linearGradient>
    <linearGradient id="5-s" x1="50%" x2="50%" y1="0%" y2="100%">
      <stop offset="0%" stop-color="#181360"/>
      <stop offset="33.768%" stop-color="#3F31DB"/>
      <stop offset="100%" stop-color="#21166C"/>
    </linearGradient>
    <linearGradient id="5-t" x1="50%" x2="50%" y1="0%" y2="100%">
      <stop offset="0%" stop-color="#F9BE98"/>
      <stop offset="100%" stop-color="#FCC7A4"/>
    </linearGradient>
    <linearGradient id="5-u" x1="100%" x2="0%" y1="50%" y2="47.562%">
      <stop offset="0%" stop-color="#FCC6A2"/>
      <stop offset="100%" stop-color="#E6925D"/>
    </linearGradient>
    <linearGradient id="5-v" x1="34.941%" x2="50%" y1="41.706%" y2="50%">
      <stop offset="0%" stop-color="#F2C4A5"/>
      <stop offset="100%" stop-color="#E6925D"/>
    </linearGradient>
    <linearGradient id="5-w" x1="50%" x2="50%" y1="0%" y2="100%">
      <stop offset="0%" stop-color="#D79871"/>
      <stop offset="100%" stop-color="#FFC7A4"/>
    </linearGradient>
    <linearGradient id="5-x" x1="50%" x2="50%" y1="0%" y2="100%">
      <stop offset="0%" stop-color="#F9BE98"/>
      <stop offset="100%" stop-color="#FCC7A4"/>
    </linearGradient>
    <linearGradient id="5-y" x1="88.106%" x2="12.447%" y1="49.729%" y2="46.654%">
      <stop offset="0%" stop-color="#F9CEB0"/>
      <stop offset="67.029%" stop-color="#FCDAC0"/>
      <stop offset="100%" stop-color="#FCC6A2"/>
    </linearGradient>
    <linearGradient id="5-z" x1="27.133%" x2="17.048%" y1="41.888%" y2="65.828%">
      <stop offset="0%" stop-color="#FEE5CF"/>
      <stop offset="83.434%" stop-color="#F5BC97"/>
      <stop offset="100%" stop-color="#FCC6A2"/>
    </linearGradient>
    <filter id="5-A" width="188.9%" height="188.5%" x="-37%" y="-40.4%" filterUnits="objectBoundingBox">
      <feOffset dy="4" in="SourceAlpha" result="shadowOffsetOuter1"/>
      <feGaussianBlur in="shadowOffsetOuter1" result="shadowBlurOuter1" stdDeviation="1"/>
      <feColorMatrix in="shadowBlurOuter1" result="shadowMatrixOuter1" values="0 0 0 0 0.231372549   0 0 0 0 0.639215686   0 0 0 0 0.733333333  0 0 0 0.28400896 0"/>
      <feMerge>
        <feMergeNode in="shadowMatrixOuter1"/>
        <feMergeNode in="SourceGraphic"/>
      </feMerge>
    </filter>
    <circle id="5-C" cx="25.008" cy="24.938" r="24.938"/>
    <filter id="5-B" width="147.2%" height="149.2%" x="-23.6%" y="-15.6%" filterUnits="objectBoundingBox">
      <feMorphology in="SourceAlpha" operator="dilate" radius="2.276" result="shadowSpreadOuter1"/>
      <feOffset dy="5" in="shadowSpreadOuter1" result="shadowOffsetOuter1"/>
      <feGaussianBlur in="shadowOffsetOuter1" result="shadowBlurOuter1" stdDeviation="3"/>
      <feComposite in="shadowBlurOuter1" in2="SourceAlpha" operator="out" result="shadowBlurOuter1"/>
      <feColorMatrix in="shadowBlurOuter1" values="0 0 0 0 0.364048071   0 0 0 0 0.485643487   0 0 0 0 0.50634058  0 0 0 1 0"/>
    </filter>
    <filter id="5-D" width="139.2%" height="141.2%" x="-19.6%" y="-11.6%" filterUnits="objectBoundingBox">
      <feGaussianBlur in="SourceAlpha" result="shadowBlurInner1" stdDeviation=".5"/>
      <feOffset dy="4" in="shadowBlurInner1" result="shadowOffsetInner1"/>
      <feComposite in="shadowOffsetInner1" in2="SourceAlpha" k2="-1" k3="1" operator="arithmetic" result="shadowInnerInner1"/>
      <feColorMatrix in="shadowInnerInner1" values="0 0 0 0 0.0599093338   0 0 0 0 0.14343   0 0 0 0 0.535977129  0 0 0 1 0"/>
    </filter>
    <linearGradient id="5-E" x1="14.179%" x2="86.688%" y1="53.219%" y2="47.121%">
      <stop offset="0%" stop-color="#605D5D"/>
      <stop offset="100%" stop-color="#FFF"/>
    </linearGradient>
    <text id="5-G" fill="#FFF" font-family="Cinzel-Black, Cinzel" font-size="13.971" font-weight="800">
      <tspan x="3.353" y="14">E</tspan> <tspan x="12.672" y="14" font-family="CinzelDecorative-Black, Cinzel Decorative">L </tspan> <tspan x="3.353" y="37" font-family="CinzelDecorative-Black, Cinzel Decorative">COOK</tspan>
    </text>
    <filter id="5-F" width="178%" height="176.1%" x="-33%" y="-33.7%" filterUnits="objectBoundingBox">
      <feOffset dx="1" dy="2" in="SourceAlpha" result="shadowOffsetOuter1"/>
      <feGaussianBlur in="shadowOffsetOuter1" result="shadowBlurOuter1" stdDeviation="5.5"/>
      <feColorMatrix in="shadowBlurOuter1" values="0 0 0 0 0.138193869   0 0 0 0 0.271535136   0 0 0 0 0.557235054  0 0 0 1 0"/>
    </filter>
    <filter id="5-H" width="162%" height="158.7%" x="-25%" y="-25%" filterUnits="objectBoundingBox">
      <feGaussianBlur in="SourceAlpha" result="shadowBlurInner1" stdDeviation=".5"/>
      <feOffset dy="4" in="shadowBlurInner1" result="shadowOffsetInner1"/>
      <feComposite in="shadowOffsetInner1" in2="SourceAlpha" k2="-1" k3="1" operator="arithmetic" result="shadowInnerInner1"/>
      <feColorMatrix in="shadowInnerInner1" values="0 0 0 0 1   0 0 0 0 1   0 0 0 0 1  0 0 0 0.5 0"/>
    </filter>
    <filter id="5-I" width="162%" height="158.7%" x="-25%" y="-25%" filterUnits="objectBoundingBox">
      <feGaussianBlur in="SourceAlpha" result="shadowBlurInner1" stdDeviation=".5"/>
      <feOffset dy="4" in="shadowBlurInner1" result="shadowOffsetInner1"/>
      <feComposite in="shadowOffsetInner1" in2="SourceAlpha" k2="-1" k3="1" operator="arithmetic" result="shadowInnerInner1"/>
      <feColorMatrix in="shadowInnerInner1" values="0 0 0 0 1   0 0 0 0 1   0 0 0 0 1  0 0 0 0.5 0"/>
    </filter>
    <filter id="5-J">
      <feColorMatrix in="SourceGraphic" values="0 0 0 0 0.949020 0 0 0 0 0.960784 0 0 0 0 0.964706 0 0 0 1.000000 0"/>
    </filter>
    <ellipse id="5-L" cx="5.172" cy="4.998" rx="5.172" ry="4.998"/>
    <filter id="5-K" width="123.2%" height="124%" x="-11.6%" y="-12%" filterUnits="objectBoundingBox">
      <feGaussianBlur in="SourceGraphic"/>
    </filter>
    <rect id="5-N" width="75.6" height="115.8" x="0" y="0" rx="11.4"/>
    <filter id="5-M" width="237.6%" height="189.8%" x="-59.5%" y="-38%" filterUnits="objectBoundingBox">
      <feOffset dx="7" dy="8" in="SourceAlpha" result="shadowOffsetOuter1"/>
      <feGaussianBlur in="shadowOffsetOuter1" result="shadowBlurOuter1" stdDeviation="16"/>
      <feComposite in="shadowBlurOuter1" in2="SourceAlpha" operator="out" result="shadowBlurOuter1"/>
      <feColorMatrix in="shadowBlurOuter1" values="0 0 0 0 0.164705882   0 0 0 0 0.160784314   0 0 0 0 0.490196078  0 0 0 1 0"/>
    </filter>
  </defs>
  <g fill="none" fill-rule="evenodd">
    <g transform="translate(0 24)">
      <g transform="translate(0 27)">
        <path fill="url(#5-a)" d="M579.245003,277.96411 C607.314194,296.063561 647.797843,294.30773 668.04498,254.08 C681.15421,228.034116 713.665362,198.219777 746,174.06 C769.214134,156.714876 751.138604,99.5262851 746,82 C724.935986,10.1567675 686.873379,0 589.10241,0 C491.331441,0 5.61550806e-13,5.4 1.48139995,76.8 C1.99249486,101.433575 -13.4741253,119.453519 80.6,145.063554 C162.755197,167.428869 421.223663,145.555342 486.891022,170.481704 C565.315523,200.250489 551.175812,259.864659 579.245003,277.96411 Z"/>
        <path fill="#C3E4E5" d="M628.586636,226.793364 L629.492225,226.793364 C629.728499,235.064049 629.846636,244.199468 629.846636,254.199621 C629.846636,263.543025 629.698484,272.522485 629.492225,281.943458 C629.486602,282.20028 631.162564,281.93983 631.153325,282.346187 C631.148897,282.540957 630.993334,283.203349 630.686636,284.333364 L628.586636,284.333364 L628.586636,226.793364 Z" transform="rotate(90 629.87 255.563)"/>
        <g fill-rule="nonzero" transform="translate(319.14 7)">
          <circle cx="299.765" cy="232.16" r="19.32" fill="#565EC3"/>
          <use fill="#000" filter="url(#5-b)" xlink:href="#5-c"/>
          <use fill="#FFF" xlink:href="#5-c"/>
          <circle cx="67.875" cy="12.61" r="12.5" fill="#FFF"/>
          <circle cx="166.045" cy="31.32" r="12.5" fill="#FFF"/>
          <circle cx="236.025" cy="41.5" r="12.5" fill="#FFF"/>
          <circle cx="337.565" cy="54.92" r="10.08" fill="#F2F2F2"/>
          <circle cx="298.085" cy="88.36" r="12.5" fill="#FFF"/>
          <circle cx="350.325" cy="178.56" r="12.5" fill="#FFF"/>
          <use fill="#000" filter="url(#5-d)" xlink:href="#5-e"/>
          <use fill="#CDE7ED" xlink:href="#5-e"/>
          <use fill="#000" filter="url(#5-f)" xlink:href="#5-g"/>
          <use fill="#CDE7ED" xlink:href="#5-g"/>
          <use fill="#000" filter="url(#5-h)" xlink:href="#5-i"/>
          <use fill="#CDE7ED" xlink:href="#5-i"/>
        </g>
        <g transform="translate(483.5 153.06)">
          <g fill-rule="nonzero" transform="rotate(-53 40.312 -17.78)">
            <path fill="#333" d="M0.49952,46.70568 L8.55344,50.15808 L13.73456,39.22632 L5.68064,36.92304 C3.46586907,38.7494463 2.05113393,40.2429663 1.43643457,41.4036 C0.821735211,42.5642337 0.509430354,44.3315937 0.49952,46.70568 Z"/>
            <path fill="#5684D0" d="M0.75656,41.4036 C3.6432199,41.0833694 6.05894806,41.0833694 8.0037445,41.4036 C9.94854093,41.7238306 11.8588128,42.4361506 13.73456,43.54056 L30.9231865,2.75785852 L17.32304,0 L13.18016,4.13784 L0.75656,41.4036 Z"/>
          </g>
          <path fill="#333" fill-rule="nonzero" d="M81.9424426,35.28 C84.9250519,37.4299937 86.4163565,38.5049905 86.4163565,38.5049905 C86.4163565,38.5049905 91.9349794,34.9567574 95.1075568,33.3489833 C96.0131498,32.890054 97.5215294,32.7382875 98.8764,33.3489833 C100.623781,34.1365997 102.059635,35.8179114 101.0287,35.8179114 C100.421582,35.8179114 99.8353608,38.0206309 98.8764,39.48672 C96.4558341,43.1873564 91.5175613,48.7004814 84.0615816,56.026095 C83.3997382,56.676357 82.3360665,56.6669759 81.6857998,56.0051371 C81.6317514,55.9501268 81.5815549,55.8914602 81.5355665,55.8295535 L73.4460842,44.94 L73.4460842,44.94 L81.9424426,35.28 Z"/>
          <path fill="#4D8AF0" fill-rule="nonzero" d="M0.02688,10.84776 L4.02864,18.85632 C6.58468707,23.9652406 12.1224774,26.8660846 17.77776,26.05848 C22.165464,26.7054742 27.465864,26.4193142 33.67896,25.2 C39.892056,23.9806858 44.597736,20.5775658 47.796,14.99064 L74.0436686,46.636099 L84.7860842,35.8433435 L59.8049802,6.15172649 C58.3638047,4.915285 54.4422137,0.743245608 52.557917,0.978193538 L0.02688,10.84776 Z"/>
          <path fill="#304A5A" d="M91.8603715,59.3754455 C93.1361493,59.3754455 94.1703715,53.7342334 94.1703715,46.7754455 C94.1703715,39.8166577 93.8805815,31.2702415 92.6048037,31.2702415 C91.9268949,31.2702415 89.4277048,34.5347169 88.8891127,37.9070123 C88.4141115,40.8811453 89.8223406,43.7768249 90.271125,46.8919015 C91.228775,53.5390858 90.5845937,59.3754455 91.8603715,59.3754455 Z" transform="rotate(40 91.481 45.323)"/>
        </g>
        <path fill="#7FA6E7" d="M542.022464,200.259308 C542.855021,200.259308 546.062365,199.723785 546.761745,198.109968 C548.498055,194.103439 547.022872,181.35514 547.022872,171.684923 C547.022872,158.119574 547.018271,150.699308 544.118777,150.699308 C541.219282,150.699308 536.522855,158.119574 536.522855,171.684923 C536.522855,174.801363 536.563508,189.252478 537.565316,194.197428 C538.754799,200.068749 541.239456,200.259308 542.022464,200.259308 Z" transform="rotate(-45 542.065 175.48)"/>
        <path fill="url(#5-j)" d="M478.88,163.98 C514.447977,147.518279 536.58039,146.726093 545.27724,161.603441 C553.97409,176.480789 567.173286,184.775665 584.874829,186.488068 L586.4,218.16 C572.683281,218.324095 562.233866,217.384574 555.051756,215.341439 C547.869646,213.298304 541.099061,205.757824 534.74,192.72 L478.88,163.98 Z"/>
        <text fill="#EBCC70" font-family="SFCompactRounded-Black, SF Compact Rounded" font-size="9.66" font-weight="700" letter-spacing="-.287">
          <tspan x="606.14" y="99.48">WHY</tspan>
        </text>
        <text fill="#EBCC70" font-family="SFCompactRounded-Black, SF Compact Rounded" font-size="9.66" font-weight="700" letter-spacing="-.287">
          <tspan x="654.74" y="187.92">WHEN</tspan>
        </text>
        <text fill="#EBCC70" font-family="SFCompactRounded-Black, SF Compact Rounded" font-size="9.66" font-weight="700" letter-spacing="-.287">
          <tspan x="471.74" y="41.44">WHAT</tspan>
        </text>
        <text fill="#EBCC70" font-family="SFCompactRounded-Black, SF Compact Rounded" font-size="9.66" font-weight="700" letter-spacing="-.287">
          <tspan x="539.14" y="51.46">WHERE</tspan>
        </text>
        <text fill="#EBCC70" font-family="SFCompactRounded-Black, SF Compact Rounded" font-size="9.66" font-weight="700" letter-spacing="-.287">
          <tspan x="376.4" y="23.36">HOW</tspan>
        </text>
        <g transform="translate(665.608 73.26)">
          <g fill-rule="nonzero" transform="translate(17.392 68.46)">
            <ellipse cx="30.996" cy="94.29" fill="#CDE7ED" rx="30.996" ry="7.56"/>
            <g transform="rotate(-15 34.94 -27.79)">
              <path fill="#8D8D94" d="M10.752,81.144 C10.752,81.144 12.768,85.176 14.028,85.68 C14.8465568,86.0074227 17.089392,88.8598995 17.9619469,90.4594891 C18.2476988,90.9833367 18.1171449,91.3191161 17.65302,91.6124202 C14.28,93.7440025 10.7525444,92.1154013 10.7525444,92.1154013 C9.56166852,91.9474072 8.7700545,91.7352949 8.37770236,91.4790643 C6.07358709,89.9743326 4.88092848,87.7408137 3.82699247,86.6720395 C2.80372091,85.6343614 1.59244329,83.750516 0.193159616,81.0205031 C0.193159616,81.0205031 0.381090785,78.1717314 2.22384409,77.5261844 C2.37904068,77.4718165 2.76382648,78.6631497 2.94,78.624 C5.208,78.12 10.752,81.144 10.752,81.144 Z"/>
              <path fill="url(#5-k)" d="M30.156,2.268 C30.156,2.268 30.156,39.06 24.36,52.416 C18.710019,62.3720202 14.7440931,69.9117532 12.4622222,75.0351991 C11.7760931,76.5757532 11.2068944,78.7000319 10.754626,81.4080351 C10.754626,81.4080351 7.94013921,81.9433222 5.60084451,81.0665214 C3.8682077,80.4171046 2.47658318,78.6411375 2.26212747,77.1399475 C2.52813934,75.9533229 2.81449907,74.8846139 3.12120664,73.9338204 C5.05449907,67.9406139 8.01809685,59.0040071 12.012,47.124 L18.06,28.728 L19.572,1.90993887e-12 L30.156,2.268 Z"/>
            </g>
            <g transform="rotate(7 4.787 130.428)">
              <path fill="#96969C" d="M23.9814573,76.9305645 L25.4707425,82.656 C25.4707425,82.656 27.4834839,94.3903767 24.7114839,94.3903767 C21.9394839,94.3903767 17.6587425,91.224 17.4067425,89.208 C17.2781681,88.179405 15.9110755,80.9057656 16.073013,78.3456448 C16.0856833,78.1453359 18.7218314,77.6736425 23.9814573,76.9305645 Z"/>
              <path fill="url(#5-l)" d="M22.6987425,1.008 L20.4307425,16.38 L21.9427425,50.148 L22.6987425,68.796 C22.6987425,68.796 25.7227425,77.112 24.7147425,77.868 L24.4749925,78.0478125 C23.3278722,78.90815 21.8883542,79.2827066 20.4673862,79.0905729 C16.5539041,78.5614185 14.5256896,78.1538942 14.3827425,77.868 C14.1307425,77.364 9.3427425,39.312 9.3427425,39.312 C9.3427425,39.312 -0.4852575,8.568 0.0187425,8.064 C0.5227425,7.56 2.7907425,-1.37276857e-13 2.7907425,-1.37276857e-13 L22.6987425,1.008 Z"/>
            </g>
          </g>
          <g transform="scale(-1 1) rotate(-74 16.517 24.386)">
            <path fill="url(#5-m)" d="M7.1035147,6.21774419 C7.50638231,6.21774419 7.07111882,7.63947956 7.45867613,7.56 C7.72715178,7.50494149 8.29962509,8.07469677 8.63032174,7.93300761 C9.58028831,7.52598818 10.409984,6.15100968 10.9558796,5.53681743 C11.4933069,4.93215287 11.701625,4.23637002 11.580834,3.44946888 C11.1641977,2.77498575 10.6427567,2.15774419 10.0165111,1.59774419 C9.41191632,1.05710483 8.50494173,2.29192665e-12 7.45867613,2.29192665e-12 C6.37905044,2.29192665e-12 5.54242869,0.632027694 4.74081124,1.25851659 C4.32948858,1.57997801 3.84457721,1.76171416 3.51314213,2.14366427 C3.42604896,2.24403158 2.28626017,2.48384859 1.36976168,3.01205492 C0.851532726,3.31072625 0.362618062,4.02241681 0.279774165,4.06034521 C-0.531486037,4.43176427 0.509129183,4.11774419 2.2735147,4.11774419 C3.56370941,4.11774419 -1.03604061,5.82694215 0.279774165,6.23132786 C0.369406922,6.25887445 0.0082813401,7.09117064 0.9902352,7.09117064 C1.40697974,7.09117064 1.871648,6.71862593 2.74587679,7.32335377 C3.43456727,7.79973971 4.87845168,7.48939755 5.2135147,7.32335377 C5.79562901,7.03488128 5.2135147,5.53681743 5.86718021,5.53681743 C6.11641068,5.53681743 6.12956658,5.38550226 6.3,5.39132786 C6.60350821,5.40170211 6.96350657,6.21774419 7.1035147,6.21774419 Z"/>
            <line x1="7.734" x2="9.414" y1="4.118" y2="6.54" stroke="#EFAE83" stroke-width=".5"/>
            <line x1="9.414" x2="11.329" y1="2.438" y2="4.976" stroke="#EFAE83" stroke-width=".5"/>
            <line x1="8.574" x2="10.371" y1="3.278" y2="5.798" stroke="#EFAE83" stroke-width=".5"/>
          </g>
          <path fill="#EFAE83" d="M2.62641679,32.7545616 C3.20631577,32.7545616 3.76385604,32.2338546 3.44451168,31.8163743 C3.20631577,31.5049797 3.74527289,30.328677 4.13824693,30.6054679 C4.44926408,30.8245326 5.49515463,31.68055 5.35641679,32.1541446 C5.25508851,32.5000382 5.34459384,32.7995244 5.50157821,32.8538198 C5.77039169,32.946793 6.64776876,32.255368 6.61641679,32.1541446 C6.54064605,31.9095104 4.44012283,29.8145616 4.27169037,29.8145616 C3.9767279,29.8145616 2.82273307,30.2532886 2.62641679,30.2532886 C2.0465178,30.2532886 0.186889396,31.3524551 0.186889396,31.8163743 C0.186889396,32.0404842 0.589665485,32.4258641 1.10369977,32.6001712 C1.65374346,32.7866889 2.32665513,32.7545616 2.62641679,32.7545616 Z" transform="scale(-1 1) rotate(-44 0 39.759)"/>
          <g transform="translate(1.012)">
            <ellipse cx="47.045" cy="27.72" fill="#4A37EE" rx="9.66" ry="4.2"/>
            <path fill="url(#5-n)" d="M81.1194872,58.9357952 C91.2097296,58.9357952 74.4999435,55.9738557 74.4999435,52.0305426 C74.4999435,51.4466954 74.8224646,50.1933413 74.6342676,49.1790641 C74.5397079,48.66944 74.4608912,47.5637492 74.2868823,47.1881135 C71.3948426,47.0106175 71.9383051,47.9970985 68.2726295,47.96792 C65.327117,47.9444739 65.7677251,47.5373602 62.2465334,47.7977921 C60.0299553,47.9617332 58.7380262,49.5114324 58.7380262,50.0085224 C58.7380262,50.4448284 57.4949692,53.3549932 57.7892179,53.8222091 C60.1543754,57.5776679 72.145675,58.9357952 81.1194872,58.9357952 Z" transform="rotate(-140 71.051 53.051)"/>
            <path fill="url(#5-o)" d="M47.2553617,38.64 C52.0019387,38.64 54.164029,35.5664914 56.6769251,32.728356 C56.7317037,32.6664875 56.8572411,32.8226698 57.0535372,33.196903 C56.540412,32.4457548 56.1594808,32.0416225 55.9107435,31.9845062 C54.8949725,31.7512595 53.1976376,30.5186121 52.3777249,29.7686395 C51.5578121,29.0186668 51.7897177,27.2084325 51.6653617,26.1116648 C51.5645945,25.2229412 52.5053617,21.6359997 51.6653617,22.3903245 C50.4320733,23.4978245 49.3755982,25.5281385 47.4271488,25.5281385 C46.511526,25.5281385 45.2211411,24.707913 43.5559941,23.067462 C43.6953954,25.1533561 43.6052274,26.5671563 43.2854904,27.3088627 C42.8033475,28.4273081 42.7358238,29.306907 42.0576983,29.7686395 C41.1450627,30.3900489 39.7886932,31.2328722 39.129051,31.4655757 C38.7527752,31.5983154 37.4271918,32.1122991 37.4271918,32.728356 C37.4271918,37.1355883 42.5087847,38.64 47.2553617,38.64 Z"/>
            <path fill="url(#5-p)" d="M30.875805,52.9459741 C40.2588313,52.9459741 24.7202191,50.2070594 24.7202191,46.5606654 C24.7202191,46.0207801 25.0201349,44.8617996 24.8451285,43.9238943 C24.7571964,43.4526433 24.6839039,42.4302076 24.5220911,42.0828561 C24.3694277,41.7551449 24.1224753,42.0952899 24.2134834,41.8910966 C24.5813824,41.0656481 26.5568497,42.3189691 24.5220911,42.0828561 C21.8774913,41.7759772 22.6317227,42.1333049 19.2229709,42.1063235 C16.4839068,42.0846428 16.600034,42.4058056 13.3256395,42.6466278 C11.2644193,42.7982246 10.0630404,44.2312363 10.0630404,44.690897 C10.0630404,45.0943505 9.79763242,46.4777692 10.0712575,46.9098052 C12.2706432,50.3824898 22.5309592,52.9459741 30.875805,52.9459741 Z" transform="rotate(-32 21.917 47.276)"/>
            <path fill="url(#5-q)" d="M9.1747857,45.1526406 C13.5206218,45.1526406 16.9480889,44.3242705 19.4892838,43.4055608 C21.4240976,42.7060741 23.0347857,42.0556299 23.0347857,41.084412 C23.0347857,40.1700418 21.8170991,39.1541472 19.8573411,38.8386574 C17.0015171,38.3789153 12.3376628,38.7827256 8.47925405,38.2075329 C4.62084531,37.6323401 2.38694202,36.5243461 0.0702587025,36.3378532 C-1.0463223,36.2479684 -1.91009521,37.3475494 -2.66921323,37.5540859 C-4.30797204,37.9999499 -4.34453288,40.7819728 -4.19906013,41.7075955 C-3.79962404,44.249151 1.52011907,45.1526406 9.1747857,45.1526406 Z" transform="scale(-1 1) rotate(-67 0 54.93)"/>
            <path fill="#D8D8D8" d="M57.766776,53.2892853 C58.2130365,53.2892853 48.2423066,67.259647 48.3098783,69.6995853 C48.3625381,71.6010719 47.2838016,74.5006667 48.1113646,76.1611167 C48.1883574,76.3155976 45.9034274,82.1895495 46.8922233,80.4378334 C47.873501,78.6994363 59.8611469,55.8880337 60.0763963,55.941037 C60.6688862,56.0869324 62.0824448,65.141087 62.7195568,65.5077389 C63.7588637,66.1058502 64.1600753,66.2253353 64.5508356,66.1551796 C64.6551016,66.13646 67.9519137,65.8409228 74.4412717,65.2685677 C72.0544552,55.765231 71.1862067,50.3474338 71.8365262,49.0151762 C72.9261072,46.7830385 68.2743592,39.6405711 68.3071765,39.4269727 C68.4072472,38.7756422 55.6559642,38.810867 55.5601814,37.6367344 C55.477342,36.6212652 52.2177037,34.3382885 51.1165229,33.3318999 C48.2145537,30.6797385 54.3708422,28.4597568 49.925871,27.9410583 C47.0819427,27.6091908 44.6136834,27.2088658 42.1838665,26.9113469 C41.1086583,26.7796931 40.5107241,26.7830639 38.9279673,26.8012807 C33.4709545,26.8640884 35.2765987,27.1318411 31.6109231,27.1026626 C30.6931876,27.0953575 31.3686225,26.862259 31.3325759,27.5481113 C31.2529294,29.0635321 31.8112452,32.2210816 31.8775052,32.5979145 C32.2931607,34.9618242 30.6673316,37.3999405 31.7714315,38.254132 C33.9589033,39.9464786 38.6775371,38.0570718 39.3375547,38.890919 C39.3631481,38.923253 39.8097265,38.8840736 39.8959781,38.7775556 C40.9736957,37.4466086 46.3414254,30.1639345 46.3976979,30.6882854 C46.3999459,30.7092326 38.6704192,39.2257166 36.3560094,45.168921 C35.0808487,48.4434235 27.2726258,59.6194617 27.3433035,59.7447597 C28.0736448,61.0395133 45.4887833,54.0600241 47.2167462,55.1746196 C50.0090419,56.9757464 56.382666,53.2892853 57.766776,53.2892853 Z" transform="rotate(-32 50.892 53.778)"/>
            <path fill="#3023A3" d="M47.0453617,49.7518823 L55.2270518,47.9346951 L57.371847,46.8839171 C56.3715656,47.5622394 56.6515656,50.8693243 58.211847,56.8051716 C58.6967973,58.6500896 60.9961254,67.0278563 60.9961254,68.2556616 C60.9961254,69.2153256 64.2653617,83.199334 64.2653617,84.1834448 C64.2653617,87.4472045 65.1452497,100.546056 66.9050256,123.48 C60.3310175,125.439995 54.0606264,126.419993 48.0938524,126.419993 C42.1270784,126.419993 36.4639215,125.439995 31.1043816,123.48 L32.3106636,75.7269888 C33.1805016,70.6908962 33.7714577,67.4260196 34.0835317,65.932359 C36.24267,55.5982104 36.7276333,51.5411544 36.7276333,47.9346951 C36.7276333,47.7458509 40.1668761,48.35158 47.0453617,49.7518823 Z"/>
            <path fill="url(#5-r)" d="M35.1234837,32.6345006 L37.5690604,32.0015308 C38.2560305,32.3963834 38.7157652,34.8078171 38.9482644,39.2358317 C39.1597824,43.264254 40.1888465,45.8423371 39.8640679,49.7226882 C39.8518478,49.8686908 39.4677363,50.4777703 39.454144,50.6289161 C39.4393168,50.7937947 39.5759581,50.4917187 39.8640679,49.7226882 C40.1329611,50.1715517 39.9963198,50.4736277 39.454144,50.6289161 C38.9119683,50.7842046 37.9939381,50.7842046 36.7000535,50.6289161 C36.5537053,45.3054088 36.4232422,41.507714 36.3086642,39.2358317 C36.1940863,36.9639495 35.7990261,34.7635058 35.1234837,32.6345006 Z"/>
            <path fill="url(#5-s)" d="M56.3003575,32.0116269 C57.1328686,31.9036015 57.7181093,31.9036015 58.0560795,32.0116269 C58.3940497,32.1196523 58.7987563,32.4569923 59.2701992,33.023647 C58.2933185,36.2746722 57.8048782,39.6272746 57.8048782,43.0814544 C57.8048782,46.5356342 57.8048782,49.9586853 57.8048782,53.3506079 L55.0223432,53.3506079 C55.0223432,49.9645684 55.0223432,46.5415173 55.0223432,43.0814544 C55.0223432,39.6213916 55.448348,35.9314491 56.3003575,32.0116269 Z"/>
            <path fill="#401E25" stroke="#421F23" stroke-width=".5" d="M52.9981909,1.20461439 C53.4990465,1.06264043 54.096259,0.885178318 54.9174956,1.26457502 C55.777816,1.66202776 56.7555033,3.3218483 57.6051762,5.19683924 C58.7198434,7.6565987 59.5964479,10.5281661 59.5964479,11.6830764 C59.5964479,11.79374 59.6832129,12.1552515 59.8181689,12.6787759 C60.1761188,14.0673434 60.856745,16.6891809 60.7310953,18.6192638 C60.6076638,20.515274 59.3672335,22.0478481 59.0077783,22.3804887 L59.0077783,22.3804887 L58.9301009,22.4578173 C58.6494881,22.7375869 57.646779,23.7263447 56.544212,24.5683008 C55.5224964,25.3485161 53.9783946,26.080225 51.9153617,26.7693473 L51.9153617,26.7693473 L51.9153617,25.2915216 C51.9153617,25.1621899 51.9704339,24.8225307 52.0345021,24.4564727 L52.0905463,24.1405336 L52.0905463,24.1405336 L52.1182057,23.9857588 C52.1735683,23.6754385 52.2219028,23.4031599 52.2370999,23.2798195 C52.2597721,23.0958113 52.187852,23.0218124 52.1381118,22.9797055 L52.149,22.989 L52.1750089,22.9624453 C52.3208701,22.7875221 52.4166436,22.5825709 52.4809582,22.4088616 L52.5235867,22.2853948 C52.5719845,22.1353269 52.6304846,22.0495245 52.6917717,21.9569009 C52.7547488,21.861723 52.8204843,21.761292 52.8870912,21.6128341 C53.464077,20.3268101 53.9706628,18.8861639 54.1530259,18.3436217 L54.172,18.285 L54.2180514,18.2830169 C54.2786088,18.2814642 54.3490505,18.282059 54.4254713,18.2833122 L54.5440985,18.2854994 C55.0246686,18.2945833 55.5925657,18.2661788 55.7822865,18.1095577 C55.9396943,17.9796122 56.1904399,17.3459079 56.3562068,16.6812184 C56.5361206,15.959803 56.5758993,15.2761521 56.4830182,15.1443129 C56.2585141,14.8256427 56.0083433,14.654482 55.7591211,14.5633598 C55.4173149,14.4383866 55.072035,14.4705463 54.7835746,14.503753 C54.6579757,14.5182116 54.5234931,14.5825366 54.4575894,14.519996 C54.4095564,14.4744141 54.4039974,14.4162841 54.4102039,14.3542608 C54.4272309,14.1841046 54.5210626,13.9860554 54.6177271,13.7673893 C54.8684369,13.2002552 55.1298841,12.5357954 54.8110367,11.878666 C54.6952779,11.6400926 54.6292103,11.1771157 54.5539613,10.695763 C54.4745202,10.1875945 54.3895142,9.65908166 54.2580743,9.30456971 C54.1970677,9.14002651 54.1239995,9.00867813 54.043162,8.91871655 C53.9306616,8.79351841 53.8004651,8.73489324 53.6583175,8.73489324 C53.2123702,8.73489324 52.8429266,8.63093297 52.5383263,8.44555504 C52.1967226,8.23765704 51.9378139,7.92935031 51.7386583,7.56344855 C51.1602396,6.50073964 51.0753617,4.96687234 51.0753617,3.78 C51.0753617,3.10765191 51.2051104,2.53156829 51.49829,2.09309013 C51.7649633,1.69425463 52.1681134,1.41582392 52.7187118,1.28038694 C52.8092267,1.25812195 52.9021598,1.23183567 52.9981909,1.20461439 Z"/>
            <ellipse cx="54.948" cy="16.421" fill="#F7BA94" rx="1.89" ry="1.47"/>
            <ellipse cx="40.248" cy="16.421" fill="#F7BA94" rx="1.89" ry="1.47" transform="matrix(-1 0 0 1 80.495 0)"/>
            <path fill="url(#5-t)" d="M47.6753617,25.62 C51.2707354,25.62 54.1853617,21.3820272 54.1853617,16.17 C54.1853617,14.5381375 55.4391702,11.9756222 54.8776317,10.5787028 C53.749028,7.77111549 50.0761964,6.72 47.6753617,6.72 C44.079988,6.72 41.1653617,10.9509091 41.1653617,16.17 C41.1653617,21.3890909 44.079988,25.62 47.6753617,25.62 Z"/>
            <path fill="#401E25" stroke="#451F24" stroke-width=".5" d="M44.9453617,0.25 C46.3366091,0.25 50.4581799,0.488336832 51.5067003,1.34940823 C51.8958211,1.66896411 52.073303,2.03078708 52.1227606,2.43355852 C52.1945971,3.01857824 52.0169943,3.67877641 51.8298941,4.40541328 C51.6304888,5.17983849 51.4153617,6.02484878 51.4153617,6.93 C51.4153617,8.67856482 50.2692146,10.1880745 48.7177269,11.329359 C46.7703229,12.7618821 44.1670904,13.6212356 42.2292908,13.6212356 C42.0217562,13.6212356 41.7402798,13.8719435 41.4447163,14.2351184 C41.2436501,14.4821793 41.034354,14.792188 40.8034123,14.8444747 C40.0952466,14.7500415 39.7299505,14.725548 39.4782069,14.8868728 C39.2883969,15.0085088 38.93333,15.6303759 38.8252821,16.3365516 C38.7525243,16.8120793 38.7925096,17.3060474 39.028623,17.675357 C39.3264937,18.1412622 40.3830701,18.3174936 41.0483533,18.3914586 C41.4123849,18.6820218 41.4705874,18.9443382 41.5345823,19.2167245 C41.7805449,20.2636337 42.0638795,21.4599833 42.5104865,22.3946227 C42.6341744,22.6534713 42.9571691,23.1201943 43.4844324,23.7921159 C43.489084,24.2938793 43.4602265,24.8645072 43.3982195,25.5040113 C43.3868377,25.6213963 43.3583326,25.8300453 43.3254899,26.049921 C43.2875858,26.2915047 43.262704,26.4758782 43.2455395,26.6049458 C42.6330163,26.2807385 42.2882976,26.0755907 41.901938,25.836731 C41.2285249,25.4204057 40.4290729,24.9022503 39.6679648,24.3660554 C38.6440702,23.6447296 37.6879648,22.8927546 37.2177671,22.3155922 C36.6482367,21.6165001 36.3243069,20.7934614 36.132289,20.3097227 C35.6067161,19.447661 35.0525783,18.086565 35.1721587,16.5984965 C35.2120272,16.1023699 35.2266611,16.0344699 35.2587231,15.8965087 C35.2958795,15.7366265 35.3540175,15.488679 35.4871426,14.4747972 C35.6107451,13.53344 36.1705757,12.3820026 36.7448547,11.1868817 C37.3375907,9.95335032 37.9477695,8.67547638 38.1654855,7.5276299 C38.1797054,7.45265965 38.9599512,6.20733087 39.849894,4.91467936 L40.1338095,4.50621042 C40.7058713,3.69136584 41.294132,2.90479934 41.7332414,2.4294393 C41.942547,2.20285453 42.1299682,1.98493194 42.3064511,1.77966184 C43.0635009,0.899124674 43.595667,0.25 44.9453617,0.25 Z"/>
            <ellipse cx="54.605" cy="9.66" fill="#401E25" rx="2.94" ry="5.04" transform="rotate(-6 54.605 9.66)"/>
            <path fill="url(#5-u)" d="M73.0158417,64.1961652 C75.7155277,64.1961652 77.7490065,63.6090893 79.4036898,63.122309 C81.0726004,62.6313433 82.0109899,61.4889428 82.0109899,60.5639734 C82.0109899,59.6931447 81.5806669,58.881007 80.3632415,58.5805406 C79.5060664,58.3689856 78.0556776,58.9272353 77.2145592,58.4155251 C76.3734408,57.9038149 74.6227886,57.9544685 73.0427372,57.7292601 C70.6339656,57.3859324 68.9277299,56.5575492 67.4885782,56.3799369 C66.0494264,56.2023245 65.8163247,57.0616026 65.1604085,57.0990754 C64.2255088,57.1524868 63.0339973,57.5536555 62.5189704,58.4681529 C61.9422123,59.4922619 61.8498457,60.3658011 61.8498457,60.8320776 C61.8498457,62.9719068 68.26067,64.1961652 73.0158417,64.1961652 Z" transform="scale(-1 1) rotate(-3 0 2807.188)"/>
            <g transform="matrix(-1 0 0 1 65.945 54.18)">
              <path fill="#FCC6A2" d="M7.1035147,6.21774419 C7.25988527,6.21774419 7.44962832,6.34266891 7.67274386,6.59251834 L7.67273628,6.59252512 C8.044512,7.00884733 8.65424765,7.11386962 9.14388412,6.84591906 C9.98559267,6.38529922 10.5895911,5.948932 10.9558796,5.53681743 C11.7620205,4.62982059 12.2805273,3.6236068 12.2805273,3.1088721 C12.2805273,2.40397221 11.2396528,2.27096585 10.0165111,1.59774419 C9.22717223,1.16328924 8.50494173,0 7.45867613,0 C5.82507734,0 4.49050356,1.01734021 3.51314213,2.14366427 C3.37680261,2.30078371 0.509129183,3.95533966 0.279774165,4.06034521 C-0.531486037,4.43176427 0.509129183,4.11774419 2.2735147,4.11774419 C3.56370941,4.11774419 1.59103036,7.56952809 2.90684514,7.97391381 C3.09911032,8.03300213 4.02014038,7.88661371 4.62238434,7.58816578 C5.20449865,7.29969329 5.30564729,6.6121177 5.86718021,6.21774419 C6.3241283,5.89682228 6.88488574,6.21774419 7.1035147,6.21774419 Z"/>
              <line x1="7.734" x2="9.878" y1="4.118" y2="6.231" stroke="#EFAE83" stroke-width=".5"/>
              <line x1="9.414" x2="11.558" y1="2.438" y2="4.551" stroke="#EFAE83" stroke-width=".5"/>
              <line x1="8.574" x2="10.718" y1="3.278" y2="5.391" stroke="#EFAE83" stroke-width=".5"/>
            </g>
            <path fill="#401E25" d="M57.3796115 33.1214637C57.7553328 33.1214637 58.1579667 33.4984112 58.4211231 33.5597838 59.945084 33.9151978 59.8248706 34.3622728 59.8248706 33.5597838 59.8248706 32.2817291 58.4503402 26.4808743 56.9554652 26.4808743 56.233011 26.4808743 55.8426581 25.1768747 55.4018224 25.62 54.9444692 26.0797287 55.0324654 27.0140953 54.6016677 27.4608767 53.9811675 28.1043988 53.2701245 27.8542593 53.2701245 28.73755 53.2701245 28.8707647 53.1046204 29.0552562 52.7736122 29.2910244 54.3060593 31.8446506 55.8413924 33.1214637 57.3796115 33.1214637zM36.0434294 33.1394548C37.2118164 33.1394548 38.6592904 32.6146649 40.3276197 31.2339873 41.4398392 30.3135356 42.2426517 29.485449 42.7360571 28.7497274 41.7246173 27.4262881 40.9999028 26.5469339 40.5619138 26.1116648 39.714571 25.2695841 40.6540391 25.0160151 39.216823 25.0160151 38.0011666 25.0160151 37.9897578 26.5647071 37.4527721 27.233408 36.8626722 27.9682512 35.8080462 27.8741136 35.8080462 28.967122 35.8080462 31.0547584 33.4918738 33.1394548 36.0434294 33.1394548z"/>
          </g>
        </g>
        <path fill="#F5F9F9" d="M732.873712,184.42 C732.428786,190.084956 734.321021,194.631623 738.550418,198.06 C742.779815,201.488377 748.858349,203.392853 756.786019,203.773426 L756.786019,242.867491 L668.04498,255.563364 C675.34836,241.862496 683.127728,229.494708 691.383084,218.46 C699.638439,207.425292 713.468649,196.078625 732.873712,184.42 Z"/>
        <g fill="#A39158" transform="rotate(-166 368.433 31.195)">
          <ellipse cx="3.57" cy="22.512" rx="2.73" ry="4.41" transform="rotate(8 3.57 22.512)"/>
          <path d="M3.79237453,2.70163422 L4.79859971,1.71300692 C5.12679254,1.39055385 5.65424526,1.39520685 5.97669833,1.72339968 C6.13505623,1.8845764 6.22115133,2.10316477 6.21529566,2.32904278 C6.02843062,9.47121994 5.86434932,14.8754076 5.72305176,18.5416059 C5.72305176,18.5416059 5.72305176,18.5416059 5.72305176,18.5416059 C5.71161682,18.8383042 5.46776841,19.0729356 5.17084975,19.072955 L4.74378756,19.072955 C4.29700092,19.072955 3.93005855,18.7199202 3.91280418,18.2734669 L3.35370838,3.80697969 C3.33771644,3.3931917 3.49699222,2.99185058 3.79237453,2.70163422 Z" transform="rotate(10 4.799 10.979)"/>
        </g>
        <path fill="#3E2FD4" d="M707.78,136.26 C710.218737,137.050656 712.530021,137.445984 714.713852,137.445984 C716.897684,137.445984 719.0664,137.050656 721.22,136.26 L721.501576,154.287613 C721.541554,156.847163 720.028799,159.176433 717.674206,160.180818 L714.08,161.713978 L714.08,161.713978 L711.233719,160.269739 C709.118174,159.196285 707.785002,157.025427 707.78443,154.653121 L707.78,136.26 L707.78,136.26 Z"/>
        <path fill="#0F2992" fill-rule="nonzero" d="M619.355434,32.5199795 C589.160857,32.7347208 564.437868,57.2719818 564.008947,87.4643034 C564.004974,87.7430532 564.003366,89.703105 564.003366,92.2666758 C564.003366,100.093864 570.348624,106.439089 578.175812,106.439996 C581.938938,106.439171 585.547446,104.94287 588.206915,102.280517 C590.866384,99.6181641 592.358774,96.0080361 592.35552,92.2449408 C592.35408,90.5010546 592.353206,89.294088 592.353206,89.2199874 C592.350526,76.3301945 601.498134,65.2529452 614.155881,62.8181501 C626.813627,60.383355 639.417948,67.2764874 644.197385,79.2474418 C648.976823,91.2183961 644.58581,104.896963 633.731719,111.849335 L633.736638,111.855308 C633.736638,111.855308 613.564743,124.841523 607.414864,142.656197 L607.420093,142.657457 C606.338698,146.306953 605.790732,150.09365 605.793206,153.899992 C605.793206,155.464651 605.885253,169.154971 606.063102,180.266613 C606.192488,188.243577 612.696927,194.641866 620.67494,194.639993 C624.566443,194.639993 628.297152,193.08765 631.040281,190.327431 C633.78341,187.567212 635.312397,183.826935 635.288382,179.935535 C635.226617,169.759305 635.193206,157.91003 635.193206,157.049992 C635.193206,146.111205 645.745811,135.212197 654.413947,128.104679 C664.395613,119.920165 671.578474,108.766657 674.463513,96.1850616 C675.10191,93.5947459 675.453917,90.9421569 675.513206,88.2749916 C675.513206,73.4180467 669.583611,59.1755347 659.040289,48.7081015 C648.496966,38.2406683 634.211992,32.4141105 619.355434,32.5199795 Z"/>
        <g transform="matrix(-1 0 0 1 537.265 79.98)">
          <ellipse cx="42.256" cy="17.896" fill="#F7BA94" rx="1.89" ry="1.47"/>
          <path fill="url(#5-v)" d="M66.1975555,69.8600216 C76.4036544,69.8600216 59.502006,66.3095767 59.502006,61.5827697 C59.502006,60.8829183 59.8282303,59.3805362 59.6378724,58.1647331 C59.542227,57.5538521 59.4625053,56.2284725 59.2864984,55.7782021 C59.1204435,55.3533912 58.8518285,55.7943199 58.9508198,55.5296249 C59.3509907,54.4595991 61.4997446,56.0842745 59.2864984,55.7782021 C58.0037229,55.6008055 57.9135132,56.3700521 57.3717015,56.4145646 C56.6985182,56.4698698 55.5768772,55.8280016 53.5225431,55.8086227 C50.5432101,55.7805182 50.669524,56.1968403 47.1079019,56.5090172 C44.8658729,56.7055316 43.5591099,58.5631394 43.5591099,59.1589958 C43.5591099,59.6819911 43.2704205,61.4753117 43.5680478,62.0353583 C45.960362,66.5369864 57.1207057,69.8600216 66.1975555,69.8600216 Z" transform="rotate(-119 56.453 62.51)"/>
          <path fill="#F7BA94" d="M41.58,18.5615402 C41.7513443,18.3713027 41.8370164,18.1533225 41.8370164,17.9075998 C41.8370164,17.5390157 41.9683709,17.2663607 42.1751874,17.305232 C42.3130651,17.3311462 42.5346693,17.6108748 42.84,18.1444178"/>
          <path fill="url(#5-w)" d="M33.3170203,27.4521023 L40.8017317,22.9299375 C41.3823166,26.6338072 42.1550633,29.3407223 43.1199718,31.0506827 C43.4103109,31.5652064 46.7820924,33.6280347 47.1577768,34.1174678 C47.9292928,35.1225814 46.3198482,36.7029036 42.329443,38.8584346 C39.2908421,39.4810752 37.1618908,39.7700842 35.9425893,39.7254614 C34.48434,39.6720938 33.4885001,39.3316704 32.2655676,38.8584346 C29.5088195,37.7916612 28.242498,36.6398007 28.466603,35.4028532 C30.0354697,34.9672737 31.12629,34.2256954 31.7390638,33.1781183 C32.3518377,32.1305413 32.8778232,30.2218693 33.3170203,27.4521023 Z"/>
          <path fill="url(#5-x)" d="M33.5328257,29.8358377 C37.6738549,29.8358377 41.0308223,24.8444475 41.0308223,18.7058377 C41.0308223,16.7838664 42.4749163,13.7657928 41.8281554,12.1205322 C40.528268,8.81381819 36.2980255,7.57583773 33.5328257,7.57583773 C29.3917965,7.57583773 26.0348291,12.5589085 26.0348291,18.7058377 C26.0348291,24.852767 29.3917965,29.8358377 33.5328257,29.8358377 Z" transform="rotate(-9 34.015 18.706)"/>
          <path fill="#EFAE83" d="M34.6133226,29.7271152 C36.2175817,29.7271152 31.29,15.5746426 31.29,14.07 C31.29,13.296693 30.3646847,11.7043183 29.812962,11.208426 C29.5025275,10.9294052 32.6038123,10.4166548 32.1421334,10.7175432 C31.8278233,10.9223874 31.3303176,11.2058867 30.8523699,11.208426 C29.7803368,11.2141217 28.1401063,11.4904545 27.6367892,12.30086 C27.4997823,12.5214589 26.967232,12.4226368 26.515413,12.8942197 C26.1432144,13.2826993 25.8262709,14.8378919 25.8262709,15.063359 C25.8262709,15.7431687 25.6970786,20.0851175 27.0532075,22.9664294 C27.5851665,24.0966612 27.9537182,25.5629383 28.6868807,26.3728929 C29.4306093,27.1945205 30.7056318,28.3751999 31.8900433,28.9950173 C33.1495635,29.65414 34.3066163,29.7271152 34.6133226,29.7271152 Z"/>
          <path fill="#3E2121" d="M28.538646,11.4215402 C29.1408389,11.4215402 27.865643,13.3342528 28.538646,13.5215402 C29.0421829,13.6616675 30.405698,11.2675005 30.9973225,11.4215402 C31.3366957,11.5099019 28.9933233,13.3935431 29.341824,13.5215402 C29.8848953,13.7209991 33.9670103,11.2269356 34.6305934,11.4215402 C35.0773748,11.5525648 32.4202655,13.7530843 32.779976,13.5215402 C36.9982554,10.8062526 37.7202266,9.92947525 38.7894962,11.4215402 C39.2067457,12.0037725 39.9152256,16.8115944 40.4671801,17.7887055 C41.0784251,18.8707772 41.5340433,16.0982354 41.9828607,16.0982354 C42.6151611,16.0982354 43.5402015,17.6278385 43.6376977,16.9918854 C43.7953654,15.9634418 42.84,12.4518591 42.84,11.4215402 C42.84,9.64969176 43.5393214,6.75823642 42.84,5.60225954 C42.4113172,4.89364775 41.385272,5.78284671 40.4671801,5.60225954 C39.8142795,5.47383505 39.2705123,4.31082786 38.7894962,3.86922633 C37.1501022,2.36416451 35.4225109,0.0815402064 33.18,0.0815402064 C32.7072497,0.0815402064 33.6888201,1.97646366 32.779976,1.8751536 C31.2408619,1.70358651 27.687085,-0.43991397 27.2383101,0.0815402064 C26.726692,0.676015187 29.5317924,2.89542709 28.538646,3.30713119 C27.3889902,3.78371548 23.2107634,2.32851074 22.7396791,3.30713119 C22.4290914,3.95233919 25.8926899,6.64309443 25.6268211,7.34501627 C25.0940368,8.75162336 23.52,9.78287341 23.52,11.4215402 C23.52,14.5407147 25.3979651,19.4794794 26.4553975,18.7058377 C27.521156,17.9261044 25.8606499,11.4215402 28.538646,11.4215402 Z"/>
          <path fill="#793788" d="M37.893303,82.74 C39.0903437,83.2609446 41.2051203,83.8481246 44.2376326,84.5015402 L52.4504641,84.1800287 C53.0291425,84.5632768 53.3184817,84.3355943 53.3184817,83.4969814 C53.3184817,82.6583684 53.3565007,81.4260413 53.4325386,79.8 L53.4325386,68.8453145 L52.4504641,57.3516745 C52.5074432,57.6086312 52.7339898,60.2862439 53.1301041,65.3845126 C55.6416959,63.93057 57.1123718,63.2035987 57.5421321,63.2035987 C58.1867724,63.2035987 61.6501866,62.2795176 62.7353389,62.873297 C63.8204912,63.4670764 62.9412587,65.1226856 63.1341321,64.804389 C64.1088022,63.1959027 62.7562343,55.8314771 61.2341978,49.6721497 C59.7121612,43.5128223 58.2467966,42.6429948 56.4534113,39.7299375 C54.5923074,36.7068825 50.8634334,35.4746567 47.3452758,34.0151828 C47.2473693,33.9745673 46.8586905,33.7296547 46.1792395,33.2804452 C46.2345557,33.799962 46.1559238,34.3107453 45.9433435,34.812795 C45.8638509,35.0005324 45.6415466,35.2772632 45.2764307,35.6429873 C43.6249519,37.6263241 41.9986445,38.6179924 40.3975086,38.6179924 C38.1127049,38.6179924 33.1662818,37.7165866 29.8386775,36.6523216 C26.5110733,35.5880567 31.8291662,34.0474125 31.08,34.1174678 C30.8555218,34.138459 28.8669806,34.8134496 25.1143762,36.1424397 L25.1143759,36.1424388 C22.7126712,36.9930059 20.8615016,38.9392907 20.1322371,41.3805656 C16.9756498,51.9475101 15.3973561,57.7843191 15.3973561,58.8909927 C4.63000835,59.8789392 -0.471674304,60.7857884 0.0923081582,61.6115402 C0.296612396,61.9106711 4.51667649,61.3549731 4.51667649,61.6115402 C4.51667649,62.7879264 5.88629013,61.6299233 6.62931442,62.0370851 C7.8476647,62.7047157 10.4660106,61.8314215 14.0238722,62.6306866 C15.5906759,62.9826654 18.1580871,61.7940679 20.278372,62.2795176 C20.4357927,62.3155598 22.149083,59.5642764 22.7011829,60.3932379 C23.4480367,61.5146164 23.0247013,66.3735829 22.7011829,67.1646 C21.9193073,69.0763215 19.4477065,76.99382 19.0885002,79.2317265 C19.0735191,79.3250609 18.7913082,78.7020524 18.6948571,78.8821703 C18.6004808,79.0584134 18.6916252,80.038325 18.6948571,80.0850109 C18.7184181,80.4253632 25.0656871,79.1836349 25.2218438,79.2317265 C30.1903761,80.7618854 33.3479368,80.7618854 37.893303,82.74 Z"/>
          <path fill="#C7DFDF" fill-opacity=".603" d="M18.5413501,43.7767166 C19.312316,41.0622767 19.8419791,39.3691011 20.5957906,37.9274598 C20.8655774,37.4115009 21.5850623,36.7355443 22.7542454,35.89959 C21.4279138,41.987606 20.7084288,46.5203332 20.5957906,49.4977716 C20.4831524,52.4752101 20.4831524,55.3624829 20.5957906,58.15959 L15.1942454,57.503472 C15.8780848,53.8439262 16.4513488,51.1753594 16.9140374,49.4977716 C17.3995677,47.7373653 18.0536414,45.4938561 18.5413501,43.7767166 Z"/>
          <g transform="scale(-1 1) rotate(16 -245.335 -183.886)">
            <path fill="url(#5-y)" d="M15.6406817,13.307143 C20.2499017,13.307143 23.3150946,11.4135547 26.0103014,10.3636008 C28.0623766,9.5641874 30.3406817,9.76770214 30.3406817,8.6577389 C30.3406817,7.61274437 29.0491959,6.45172195 26.9706646,6.09116218 C23.9417604,5.56574261 18.9952483,6.02724012 14.9029966,5.36987701 C10.8107449,4.7125139 9.01347628,4.1291551 6.55638791,3.91602028 C5.37213533,3.81329485 3.88398977,4.38703875 3.07886461,4.62308042 C1.34078708,5.13263937 0.940681655,7.59856265 0.940681655,8.6577389 C0.940681655,11.2255339 7.52209583,13.307143 15.6406817,13.307143 Z" transform="rotate(-16 15.64 8.605)"/>
            <g transform="translate(23.94 .068)">
              <path fill="url(#5-z)" d="M7.8570052,6.66692381 C8.28180357,6.66692381 7.82284579,8.16427693 8.23150042,8.0805701 C9.32780327,7.85600872 11.143089,6.82182065 11.9190799,5.94978064 C12.4857629,5.31295582 12.8350026,4.79462207 12.966799,4.39477938 C12.2683196,3.25551124 11.5889117,2.39098483 10.9285753,1.80120015 C10.2910685,1.23180583 9.33472122,0.118476832 8.23150042,0.118476832 C7.09310353,0.118476832 6.2109389,0.784120145 5.36568407,1.44393007 C4.93197039,1.78248903 4.42066206,1.97389118 4.07118477,2.37615605 C3.92742338,2.54163219 1.74908152,3.00076456 1.50724118,3.11135504 C0.651818691,3.50252874 -0.351546295,5.37270651 1.50888646,5.37270651 C2.86931505,5.37270651 -0.72564024,6.2553362 0.661803087,6.68122995 C0.756315151,6.71024166 0.375531102,7.58680513 1.41093924,7.58680513 C1.85036996,7.58680513 1.41228729,7.61369817 2.33410617,8.25058962 C3.06028665,8.75231307 4.09369575,8.26724065 4.44699849,8.09236551 C5.06080114,7.78855005 5.86411993,5.94978064 6.5533688,5.94978064 C6.81616654,5.94978064 6.8300386,5.79041748 7.00974985,5.79655293 C7.32978003,5.80747895 7.70937549,6.66692381 7.8570052,6.66692381 Z"/>
              <line x1="8.482" x2="10.162" y1="4.49" y2="7.01" stroke="#EFAE83" stroke-width=".5"/>
              <line x1="10.549" x2="12.649" y1="2.526" y2="5.046" stroke="#EFAE83" stroke-width=".5"/>
              <line x1="9.981" x2="11.661" y1="3.623" y2="6.143" stroke="#EFAE83" stroke-width=".5"/>
            </g>
          </g>
        </g>
        <rect width="88.62" height="21" x="467.96" y="163.56" fill="#AA8342" rx="10.5"/>
        <g filter="url(#5-A)" transform="translate(590.6 208.08)">
          <g transform="translate(0 1.118)">
            <use fill="#000" filter="url(#5-B)" xlink:href="#5-C"/>
            <use fill="#102993" xlink:href="#5-C"/>
            <use fill="#000" filter="url(#5-D)" xlink:href="#5-C"/>
            <circle cx="25.008" cy="24.938" r="26.576" stroke="#CDE7ED" stroke-width="3.276"/>
            <circle cx="25.008" cy="24.938" r="24.688" stroke="#FFF" stroke-linejoin="square" stroke-width=".5"/>
            <path fill="url(#5-E)" d="M23.7456736,18.7073861 L26.391096,17.5134759 C27.0525197,17.1164189 27.8139184,16.8550817 28.6752921,16.7294644 C29.4430566,16.6174985 29.790066,16.7144854 30.5107463,16.9126921 C31.4141482,17.1611523 32.1861855,17.4806743 32.8268584,17.8712583 L34.2238336,18.7073861 L32.1860565,19.6403238 C31.5868766,19.9245494 30.922186,20.1386414 30.1919849,20.2825997 C29.4572457,20.4274528 29.2522087,20.4196658 28.4966565,20.3646758 C27.6101883,20.3001576 27.6428151,20.2357623 26.8861173,20.0051643 C26.1543153,19.782153 25.4646671,19.5243233 24.8171729,19.2316752 L23.7456736,18.7073861 Z" transform="rotate(-18 28.985 18.542)"/>
            <path fill="#FFF" d="M22.7934114,21.5620646 C23.5147319,21.4022595 24.2059644,21.3690489 24.8671088,21.4624328 C25.9056962,21.609129 26.0528574,21.6430703 26.8540194,22.1356088 C27.8432449,22.743765 28.725765,23.5175131 29.5015797,24.4568531 C29.8857782,24.9728259 30.1696852,25.5021084 30.3533004,26.0447005 C30.4535921,26.3410671 30.4535921,26.744381 30.3533004,27.254642 C30.0344554,27.0447708 29.6751051,26.8731373 29.2752494,26.7397415 C28.3316076,26.4249334 28.2870612,26.5677656 27.3808987,26.2248385 C26.7591926,25.9895607 26.7929946,26.0025595 26.0541268,25.383287 C25.6255593,25.0240887 25.4973552,24.8251551 24.9315793,24.2678969 C24.5195853,23.8621055 24.2380995,23.5158313 23.8706949,22.9558991 C23.5959188,22.5371347 23.2368243,22.0725232 22.7934114,21.5620646 Z" transform="rotate(10 26.611 24.333)"/>
            <path stroke="#FFF" stroke-width=".5" d="M17.8298313,24.6338316 C20.6220634,24.6338316 22.6328256,23.3775487 22.6328256,21.2436078 C22.6328256,19.109667 20.1161233,17.368974 17.3238912,17.368974"/>
            <path stroke="#FFF" stroke-width=".5" d="M17.5627104,24.5887488 C19.4916864,24.5887488 20.5371936,23.3769773 20.5371936,21.2233601 C20.5371936,19.0697429 18.9734496,17.3238912 17.0444736,17.3238912"/>
            <circle cx="17.77" cy="23.479" r="1.188" fill="#FFF"/>
            <path fill="#FFF" d="M1.32867345,9.86157961 C5.20778937,9.34771109 8.1584095,6.75484555 8.1584095,3.63353943 C8.1584095,0.980235688 12.9633698,1.74388775 10.1189285,1.74388775 C7.77620334,1.74388775 5.10581153,1.90611385 3.60035263,3.18240759 C1.88290486,4.63842066 1.3126783,7.27670128 1.3126783,9.884785" transform="rotate(22 -7.483 60.257)"/>
          </g>
          <g transform="translate(37.023 5.49)">
            <path fill="#FFF" d="M1.47004146,2.86443291 C0.737034201,5.71793122 0.247020381,8.17519512 0,10.2362246 L2.94008292,15.0960974 L1.47004146,41.5422 C2.31663339,40.9602135 3.01731957,40.4534903 3.5721,40.0220304 C4.12688043,39.5905705 4.58859993,39.1584407 4.9572585,38.7256411 L4.56670626,17.2035219 C4.55098273,16.3370471 4.88591254,15.5009562 5.49549442,14.8849726 L5.57132451,14.8083461 C6.16383873,14.2096094 6.52000982,13.41691 6.57421327,12.5763026 L6.83867491,8.47493282 C6.9859934,6.12961134 7.04551777,4.82320669 7.017248,4.55571888 C6.98356828,4.23704224 6.03219267,3.35632509 5.57262797,2.86443291 C5.21712459,2.48392213 4.61079127,2.01279446 4.1887999,1.54694779 C3.88498761,1.21156192 3.22157919,0.695912656 2.19857462,0 C1.85602551,1.35239855 1.61318112,2.30720952 1.47004146,2.86443291 Z"/>
            <polygon fill="#0F2696" points="3.053 .553 3.878 1.239 2.354 8.227 1.417 7.974"/>
            <polygon fill="#0F2696" points="4.49 1.772 5.264 2.531 3.822 9.55 2.945 9.316"/>
            <polygon fill="#0F2696" points="6.013 3.252 6.828 4.149 5.443 11.137 4.49 10.884"/>
          </g>
          <g fill="#FFF" fill-rule="nonzero">
            <use filter="url(#5-F)" xlink:href="#5-G"/>
            <use filter="url(#5-H)" xlink:href="#5-G"/>
            <use filter="url(#5-I)" xlink:href="#5-G"/>
          </g>
          <circle cx="21.236" cy="33.6" r="1.188" fill="#FFF"/>
          <circle cx="34.019" cy="33.321" r="1.188" fill="#FFF"/>
        </g>
        <circle cx="551.8" cy="168.76" r="12.5" fill="#FFF" fill-rule="nonzero"/>
        <text fill="#EBCC70" font-family="SFCompactRounded-Black, SF Compact Rounded" font-size="9.66" font-weight="700" letter-spacing="-.287">
          <tspan x="541.1" y="171.36">WHO</tspan>
        </text>
        <g transform="rotate(12 -307.358 2419.678)">
          <path fill="#3F3D56" fill-rule="nonzero" d="M28.5075393,10.0602149 C29.1357514,9.08770874 30.6164264,8.71098258 31.8174107,9.21808876 L54.5268697,18.8333798 C55.72644,19.3426796 55.3955174,18.9050058 54.7700086,19.8786557 L33.3529684,45.4412189 C32.9341591,46.0895551 26.4500963,43.2858672 13.90078,37.0301552 C12.7012078,36.5208569 12.2365215,35.3204576 12.8620296,34.3468066 L28.5075393,10.0602149 Z" transform="scale(-1 1) rotate(64 0 -27.082)"/>
          <path fill="#5E5D66" d="M13.6183248,41.8148415 L50.3122976,34.9405557 L48.7003619,37.5578918 L17.469033,44.1420548 L3.49934851,47.1205557 C0.0230345813,45.9747605 -0.591446964,44.9819269 1.65590387,44.1420548 C3.90325471,43.3021826 7.89072837,42.5264449 13.6183248,41.8148415 Z"/>
        </g>
      </g>
      <g transform="translate(146.6 99.6)">
        <rect width="25.2" height="22.2" x="8.4" y="6.6" fill="#F2F5F6" rx="3.6"/>
        <rect width="58.2" height="3.6" x="40.8" y="6.6" fill="#EAF2F5" rx="1.8"/>
        <rect width="58.2" height="3.6" x="40.8" y="20.4" fill="#EAF2F5" rx="1.8"/>
        <rect width="92.4" height="3.6" x="8.4" y="34.2" fill="#EAF2F5" rx="1.8"/>
        <rect width="109.2" height="43.8" x=".3" y=".3" stroke="#FFF" stroke-width=".6" rx="3.6"/>
      </g>
      <rect width="125.4" height="28.8" x="323.9" y="101.7" stroke="#FFF" stroke-width=".6" rx="14.4"/>
      <g filter="url(#5-J)">
        <g transform="translate(420.2 109.8)">
          <path fill="#543A57" stroke="#262323" stroke-opacity=".461" stroke-width=".5" d="M13.6893526,9.680102 C13.9595206,9.67546106 14.2059928,9.78076667 14.3860834,9.9547745 C14.5661739,10.1287823 14.6798826,10.3714924 14.6845196,10.6333137 C14.6795688,10.9386727 14.5630019,11.2086379 14.3741339,11.4036695 C14.1855082,11.598451 13.925292,11.7177564 13.6370894,11.7227071 L13.6370894,11.7227071 L8.55202666,11.8100582 C8.28185874,11.8146991 8.03538647,11.7093935 7.85529595,11.5353857 C7.67520544,11.3613779 7.56149667,11.1186678 7.55685976,10.8568465 C7.56181055,10.5514875 7.67837743,10.2815223 7.86724542,10.0864907 C8.05587109,9.89170919 8.31608735,9.7724038 8.60428991,9.76745306 L8.60428991,9.76745306 Z" transform="rotate(45 11.12 10.745)"/>
          <g filter="url(#5-K)">
            <ellipse cx="5.172" cy="4.998" fill="#EBF0F2" stroke="#D8D8D8" stroke-linejoin="square" stroke-width="1.2" rx="4.572" ry="4.398"/>
            <use stroke="#FCF8F8" stroke-width=".5" xlink:href="#5-L"/>
            <ellipse cx="5.172" cy="4.998" stroke="#624369" stroke-width="1.2" rx="5.772" ry="5.598"/>
          </g>
          <ellipse cx="3.621" cy="3.512" fill="#FFF" rx="1.034" ry="1"/>
          <ellipse cx="5.172" cy="4.998" fill="#E4CFEF" stroke="#5E4063" stroke-width=".6" rx="4.438" ry="4.298"/>
        </g>
      </g>
      <text fill="#0A0A0A" font-family="LucidaGrande-Bold, Lucida Grande" font-size="14.4" font-weight="bold" letter-spacing="-.346">
        <tspan x="230" y="215.6">Business Requirements </tspan>
      </text>
      <text fill="#0A0A0A" font-family="LucidaGrande-Bold, Lucida Grande" font-size="14.4" font-weight="bold" letter-spacing="-.346">
        <tspan x="138.8" y="168.2">Competitive Anyalsis </tspan>
      </text>
      <text fill="#0A0A0A" font-family="LucidaGrande-Bold, Lucida Grande" font-size="14.4" font-weight="bold" letter-spacing="-.346">
        <tspan x="356" y="256">User Persona </tspan>
      </text>
      <circle cx="120.2" cy="164.4" r="6.6" fill="#EBCC70"/>
      <path fill="#793788" fill-rule="nonzero" d="M84.2,115.6 L84.2,230.849108 C84.2,242.713841 93.7220841,252.354573 105.541151,252.546201 L105.9,252.549108 L105.95014,252.54905 L320.287,252.054 L320.280819,248.85381 L327.288888,252.337626 L320.296994,255.853791 L320.289,252.654 L105.951526,253.149049 L105.9,253.149108 C93.7072096,253.149108 83.7999142,243.363741 83.6029876,231.217879 L83.6,230.849108 L83.6,115.6 L84.2,115.6 Z"/>
      <path fill="#793788" fill-rule="nonzero" d="M84.2,115.8 L84.199,211.799 L194.888,211.428 L194.877216,208.228695 L201.888887,211.705256 L194.900635,215.228656 L194.889,212.028 L83.9010037,212.399998 L83.6,212.401005 L83.6,115.8 L84.2,115.8 Z"/>
      <path fill="#793788" fill-rule="nonzero" d="M84.2,115.4 L84.199,164.398 L104.287,164.248 L104.26304,161.048448 L111.288878,164.496288 L104.315103,168.048254 L104.291,164.848 L83.9022313,164.999992 L83.6,165.00224 L83.6,115.4 L84.2,115.4 Z"/>
      <circle cx="211.4" cy="211.8" r="6.6" fill="#EBCC70"/>
      <circle cx="337.4" cy="251.6" r="6.6" fill="#EBCC70"/>
      <g transform="translate(51.2)">
        <use fill="#000" filter="url(#5-M)" xlink:href="#5-N"/>
        <use fill="#FFF" fill-opacity=".659" xlink:href="#5-N"/>
        <circle cx="37.8" cy="42" r="15" fill="#2A297D"/>
        <text fill="#2D2626" font-family="LucidaGrande-Bold, Lucida Grande" font-size="9.072" font-weight="bold" letter-spacing="-.218">
          <tspan x="17.539" y="75.6">Research</tspan>
        </text>
        <text fill="#FFF" font-family="OpenSans-ExtraBold, Open Sans" font-size="14.4" font-weight="700" letter-spacing="-.346">
          <tspan x="33.6" y="47.4">1</tspan>
        </text>
        <g transform="translate(15.6 79.8)">
          <rect width="44.46" height="11.46" x=".27" y=".27" stroke="#979797" stroke-width=".54"/>
          <text fill="#232221" font-family="OpenSans-Regular, Open Sans" font-size="7.8" letter-spacing="-.187">
            <tspan x="1.8" y="11">Understand </tspan>
          </text>
        </g>
        <g transform="translate(15.6 94.2)">
          <rect width="44.46" height="11.46" x=".27" y=".27" stroke="#979797" stroke-width=".54"/>
          <text fill="#232221" font-family="OpenSans-Regular, Open Sans" font-size="8.4" letter-spacing=".098">
            <tspan x="6" y="11.4">Observe </tspan>
          </text>
        </g>
        <text fill="#25899F" font-family="OpenSans-Bold, Open Sans" font-size="10.8" font-weight="bold" letter-spacing="-.259">
          <tspan x="0" y="23.4">INSPIRATION</tspan>
        </text>
      </g>
    </g>
    <circle cx="789" cy="71" r="38.5" fill="#FFF" stroke="#B0DCDD"/>
    <circle cx="732" cy="126" r="2" fill="#FFF"/>
    <circle cx="739" cy="119" r="5" fill="#FFF" transform="rotate(180 739 119)"/>
    <circle cx="747.5" cy="99.5" r="8.5" fill="#FFF" transform="rotate(180 747.5 99.5)"/>
    <circle cx="289" cy="60" r="38.5" fill="#FFF" stroke="#B0DCDD"/>
    <g transform="translate(761 45)">
      <rect width="45.5" height="48.714" x=".25" y=".25" fill="#FFF" stroke="#979797" stroke-width=".5" rx="4.2" transform="translate(7)"/>
      <rect width="45.5" height="48.714" x=".25" y=".25" fill="#FFF" stroke="#979797" stroke-width=".5" rx="4.2" transform="translate(4 1.893)"/>
      <g transform="translate(0 3.786)">
        <rect width="45" height="48.214" x=".5" y=".5" fill="#FFF" stroke="#979797" rx="4.2"/>
        <rect width="3.68" height="19.875" x="2.76" y="3.786" fill="#DDEBEB"/>
        <rect width="3.68" height="17.036" x="7.36" y="6.625" fill="#DDEBEB"/>
        <rect width="3.68" height="13.25" x="11.96" y="10.411" fill="#DDEBEB"/>
        <rect width="23.92" height="1" x="17.48" y="4.732" fill="#979797" rx=".5"/>
        <rect width="23.92" height="1" x="17.48" y="7.571" fill="#979797" rx=".5"/>
        <rect width="23.92" height="1" x="17.48" y="10.411" fill="#979797" rx=".5"/>
        <rect width="23.92" height="1" x="17.48" y="16.089" fill="#979797" rx=".5"/>
        <rect width="23.92" height="1" x="17.48" y="13.25" fill="#979797" rx=".5"/>
        <rect width="23.92" height="2.839" x="17.48" y="32.179" fill="#E9E7E7" rx="1.42"/>
        <rect width="23.92" height="2.839" x="17.48" y="20.821" fill="#DBD6D6" rx="1.42"/>
      </g>
      <rect width="17" height="22" x="3" y="28" fill="#F3EFEF" rx="1"/>
    </g>
    <g stroke-width=".5" transform="translate(766 39)">
      <circle cx="7.105" cy="7.14" r="6.855" fill="#FFF" stroke="#979797"/>
      <path fill="#979797" stroke="#A6A6A6" d="M6.89242284,2.07103589 L6.79144027,7.85632343 C6.26975027,7.82983338 5.73646209,7.75207412 5.19153761,7.6233306 L5.19153761,7.6233306 L6.89242284,2.07103589 Z" transform="scale(1 -1) rotate(-1 -476.135 0)"/>
      <line x2="7.105" y1="7.898" y2="7.898" stroke="#979797"/>
    </g>
    <g transform="translate(259 30)">
      <ellipse cx="29.4" cy="30.8" stroke="#979797" stroke-width=".5" rx="26.7" ry="15.15" transform="rotate(50 29.4 30.8)"/>
      <ellipse cx="29.4" cy="30.8" stroke="#979797" stroke-width=".5" rx="26.7" ry="15.15" transform="scale(-1 1) rotate(50 0 -32.249)"/>
      <rect width="8.95" height="1.95" x="24.6" y="38.727" fill="#D8D8D8" stroke="#979797" stroke-width=".5" rx=".975"/>
      <rect width="8.95" height="1.95" x="24.6" y="41.177" fill="#D8D8D8" stroke="#979797" stroke-width=".5" rx=".975"/>
      <path fill="#F8CD55" d="M28.900117,19.927187 C33.9259082,19.927187 38.000117,24.0013958 38.000117,29.027187 C38.000117,32.388427 36.1777602,35.3240327 33.467172,36.8998786 C33.2282827,37.1222904 33.0308405,37.3563554 32.8741848,37.602187 C32.6763641,37.9126168 32.5674948,38.2042834 32.547577,38.477187 L25.2913009,38.477187 C25.264511,38.1040055 25.1438914,37.7687274 24.9294419,37.4713528 C24.7149925,37.1739781 24.4149458,36.9259229 24.0293019,36.727187 L24.049004,36.727722 C21.4959232,35.1159748 19.800117,32.2696193 19.800117,29.027187 C19.800117,24.0013958 23.8743258,19.927187 28.900117,19.927187 Z"/>
      <circle cx="29.075" cy="29.202" r="1.325" fill="#B0DCDD" stroke="#979797" stroke-width=".5"/>
      <line x1="29.075" x2="29.075" y1="30.427" y2="38.383" stroke="#979797" stroke-width=".5"/>
    </g>
    <text fill="#000" fill-opacity=".758" font-family="SFCompactRounded-Black, SF Compact Rounded" font-size="11.27" font-weight="700" letter-spacing="-.334">
      <tspan x="254" y="11">UNDERSTAND</tspan>
    </text>
    <text fill="#000" fill-opacity=".758" font-family="SFCompactRounded-Black, SF Compact Rounded" font-size="11.27" font-weight="700" letter-spacing="-.334">
      <tspan x="761" y="22">OBSERVE</tspan>
    </text>
    <g transform="translate(773 67)">
      <g stroke="#F8CD55">
        <path fill="#F8CD55" stroke-width=".9" d="M31.2370874,20.6544634 L31.8777933,34.6819303 C31.912924,35.4510752 31.6329714,36.1616447 31.1519499,36.6887108 C30.6744514,37.2119165 29.9988186,37.5542968 29.2364565,37.5936373 C28.3320936,37.5619902 27.5648952,37.2243727 27.0274356,36.690969 C26.4841888,36.1518217 26.1792458,35.4147669 26.2049249,34.612361 L26.2049249,34.612361 L27.3676348,20.9501059 L31.2370874,20.6544634 Z" transform="rotate(-45 28.977 29.17)"/>
        <circle cx="14.4" cy="14.4" r="13.05" fill="#D8D8D8" fill-opacity=".589" stroke-width="2.7"/>
      </g>
      <circle cx="15" cy="14" r="8" fill="#413E3E" stroke="#B0DCDD" stroke-width="4"/>
      <circle cx="9" cy="10" r="4" fill="#FFF"/>
      <circle cx="18" cy="17" r="2" fill="#FFF"/>
    </g>
  </g>
</svg>
