<svg xmlns="http://www.w3.org/2000/svg" xmlns:xlink="http://www.w3.org/1999/xlink" width="940" height="590" viewBox="0 0 940 590">
  <defs>
    <rect id="stmap-b" width="904" height="554" x="0" y="0" rx="15"/>
    <filter id="stmap-a" width="107.5%" height="112.3%" x="-2.2%" y="-3.6%" filterUnits="objectBoundingBox">
      <feOffset dx="14" dy="14" in="SourceAlpha" result="shadowOffsetOuter1"/>
      <feGaussianBlur in="shadowOffsetOuter1" result="shadowBlurOuter1" stdDeviation="9"/>
      <feColorMatrix in="shadowBlurOuter1" values="0 0 0 0 0.737254902   0 0 0 0 0.815686275   0 0 0 0 0.82745098  0 0 0 0.379080392 0"/>
    </filter>
  </defs>
  <g fill="none" fill-rule="evenodd" transform="translate(4 4)">
    <use fill="#000" filter="url(#stmap-a)" xlink:href="#stmap-b"/>
    <use fill="#FFF" xlink:href="#stmap-b"/>
    <g transform="translate(49 15)">
      <g transform="translate(3)">
        <g transform="translate(0 17.1)">
          <rect width="340.693" height="168.743" x="437.925" y="330.034" fill="#FFF8E8" fill-opacity=".306" stroke="#FFE198" stroke-width="2.257"/>
          <rect width="401.014" height="35.957" x="255.675" y="101.13" fill="#FFE198" fill-opacity=".228" stroke="#FFE198" stroke-width="1.219"/>
          <g transform="translate(258.722 104.787)">
            <rect width="94.464" height="29.253" x=".305" y=".305" fill="#C2E7F0" fill-opacity=".504" stroke="#6F777A" stroke-width=".609"/>
            <text fill="#000" font-family="Oxanium-Bold, Oxanium" font-size="9.751" font-weight="bold" letter-spacing=".176">
              <tspan x="15.279" y="11.047">Check in with </tspan> <tspan x="21.588" y="21.408">No Sign Up</tspan>
            </text>
          </g>
          <rect width="94.464" height="23.768" x="113.979" y="168.474" fill="#C2E7F0" fill-opacity=".504" stroke="#6F777A" stroke-width=".609"/>
          <rect width="94.464" height="23.768" x="111.542" y="109.358" fill="#C2E7F0" fill-opacity=".504" stroke="#6F777A" stroke-width=".609"/>
          <text fill="#000" font-family="Oxanium-Bold, Oxanium" font-size="9.751" font-weight="bold" letter-spacing=".176">
            <tspan x="128.493" y="184.092">Shopping List</tspan>
          </text>
          <rect width="110.919" height="27.425" x="294.984" y="274.517" fill="#C2E7F0" fill-opacity=".504" stroke="#6F777A" stroke-width=".609"/>
          <text fill="#000" font-family="Oxanium-Bold, Oxanium" font-size="9.751" font-weight="bold" letter-spacing=".176">
            <tspan x="303.315" y="287.088">Personilized Recipe </tspan> <tspan x="321.004" y="297.088">Page Screen </tspan>
          </text>
          <rect width="94.464" height="23.768" x="560.092" y="184.319" fill="#C2E7F0" fill-opacity=".504" stroke="#6F777A" stroke-width=".609"/>
          <text fill="#000" font-family="Oxanium-Bold, Oxanium" font-size="9.751" font-weight="bold" letter-spacing=".176">
            <tspan x="591.325" y="197.773">Search</tspan>
          </text>
          <rect width="94.464" height="23.768" x="49.378" y="239.779" fill="#C2E7F0" fill-opacity=".504" stroke="#6F777A" stroke-width=".609"/>
          <text fill="#000" font-family="Oxanium-Bold, Oxanium" font-size="9.751" font-weight="bold" letter-spacing=".176">
            <tspan x="66.286" y="253.233">Purchase</tspan>
          </text>
          <g transform="translate(49.074 293.105)">
            <rect width="94.464" height="23.159" x=".305" y=".305" fill="#C2E7F0" fill-opacity=".504" stroke="#6F777A" stroke-width=".609"/>
            <text fill="#000" font-family="Oxanium-Bold, Oxanium" font-size="9.751" font-weight="bold" letter-spacing=".176">
              <tspan x="8.161" y="13.485">Cancel Purchase</tspan>
            </text>
          </g>
          <rect width="95.073" height="46.724" x="58.825" y="442.622" fill="#FFE198"/>
          <text fill="#000" font-family="Oxanium-Bold, Oxanium" font-size="9.751" font-weight="bold" letter-spacing=".176">
            <tspan x="87.766" y="466.265">Log Out</tspan>
          </text>
          <rect width="94.464" height="23.768" x="438.813" y="275.127" fill="#C2E7F0" fill-opacity=".504" stroke="#6F777A" stroke-width=".609"/>
          <text fill="#000" font-family="Oxanium-Bold, Oxanium" font-size="9.751" font-weight="bold" letter-spacing=".176">
            <tspan x="472.91" y="288.916">Filter</tspan>
          </text>
          <rect width="94.464" height="23.768" x="407.122" y="105.092" fill="#C2E7F0" fill-opacity=".504" stroke="#6F777A" stroke-width=".609"/>
          <text fill="#000" font-family="Oxanium-Bold, Oxanium" font-size="9.751" font-weight="bold" letter-spacing=".176">
            <tspan x="436.324" y="117.92">Sign Up</tspan>
          </text>
          <rect width="86.791" height="35.111" x="253.425" y="211.585" fill="#FFF" fill-opacity=".504" stroke="#6F777A" stroke-width=".609"/>
          <text fill="#000" font-family="Oxanium-Bold, Oxanium" font-size="9.751" font-weight="bold" letter-spacing=".176">
            <tspan x="284.202" y="226.88">Print </tspan> <tspan x="263.647" y="236.88">Shopping List</tspan>
          </text>
          <rect width="137.125" height="31.691" x="632.616" y="331.805" fill="#C2E7F0" fill-opacity=".504" stroke="#6F777A" stroke-width=".609"/>
          <rect width="137.125" height="31.691" x="632.616" y="387.264" fill="#C2E7F0" fill-opacity=".504" stroke="#6F777A" stroke-width=".609"/>
          <rect width="96.292" height="31.691" x="440.785" y="415.908" fill="#C2E7F0" fill-opacity=".504" stroke="#6F777A" stroke-width=".609"/>
          <g transform="translate(559.788 105.396)">
            <rect width="94.464" height="27.425" x=".305" y=".305" fill="#C2E7F0" fill-opacity=".504" stroke="#6F777A" stroke-width=".609"/>
            <text fill="#000" font-family="Oxanium-Bold, Oxanium" font-size="9.751" font-weight="bold" letter-spacing=".176">
              <tspan x="33.046" y="14.704">Log In</tspan>
            </text>
          </g>
          <path fill="#221F1F" fill-rule="nonzero" d="M306.563694 134.345086L306.563 166.645 400.206 166.645 400.206121 163.42673 407.206121 166.95034 400.206121 170.47395 400.206 167.255 305.95425 167.255062 305.95425 134.345086 306.563694 134.345086zM502.195218 133.036174L502.195 166.036 597.665 166.036 597.665977 162.817286 604.665977 166.340896 597.665977 169.864506 597.665 166.645 501.585774 166.645618 501.585774 133.036174 502.195218 133.036174zM343.739778 187.587269L347.263388 194.587269 344.044 194.587 344.044 261.414 436.468 261.414 436.468039 258.195272 443.468039 261.718882 436.468039 265.242492 436.468 262.023 343.435056 262.023604 343.435 194.587 340.216168 194.587269 343.739778 187.587269z"/>
          <path fill="#221F1F" fill-rule="nonzero" d="M511.946322 146.145077L515.469932 153.145077 512.251 153.145 512.251 217.534 529.103 217.534 529.103527 214.315304 536.103527 217.838914 529.103527 221.362524 529.103 218.143 511.6416 218.143636 511.641 153.145 508.422712 153.145077 511.946322 146.145077zM456.182196 186.452548L456.182 267.906 459.401084 267.906095 455.877474 274.906095 452.353864 267.906095 455.572 267.906 455.572752 186.452548 456.182196 186.452548z"/>
          <line x1="334.598" x2="632.007" y1="318.397" y2="318.397" stroke="#201F1F" stroke-linecap="square" stroke-width=".609" transform="matrix(1 0 0 -1 0 636.794)"/>
          <path fill="#221F1F" fill-rule="nonzero" d="M483.302454,298.506077 L486.826064,305.506077 L483.607,305.506 L483.607,351.922 L486.826064,351.922303 L483.302454,358.922303 L479.778844,351.922303 L482.997,351.922 L482.997,305.506 L479.778844,305.506077 L483.302454,298.506077 Z"/>
          <line x1="406.513" x2="224.898" y1="167.255" y2="167.255" stroke="#0F0F0F" stroke-linecap="square" stroke-width=".609"/>
          <text fill="#E6BF56" font-family="Oxanium-Regular, Oxanium" font-size="9.751" letter-spacing=".176">
            <tspan x="146.671" y="199.522">Search for </tspan> <tspan x="146.671" y="210.492">Items in </tspan> <tspan x="146.671" y="221.462">Shopping </tspan> <tspan x="146.671" y="232.432">List at </tspan> <tspan x="146.671" y="243.402">Vendors</tspan>
          </text>
          <text fill="#000" font-family="Oxanium-Bold, Oxanium" font-size="9.751" font-weight="bold" letter-spacing=".176">
            <tspan x="463.923" y="430.307">Full Screen </tspan> <tspan x="456.961" y="440.307">Video Tutorial</tspan>
          </text>
          <text fill="#000" font-family="Oxanium-Bold, Oxanium" font-size="9.751" font-weight="bold" letter-spacing=".176">
            <tspan x="654.419" y="346.204">Adjust Settings for </tspan> <tspan x="639.831" y="356.204">Servings &amp; Measurement </tspan>
          </text>
          <text fill="#000" font-family="Oxanium-Bold, Oxanium" font-size="9.751" font-weight="bold" letter-spacing=".176">
            <tspan x="659.167" y="407.758">Nutritional Facts</tspan>
          </text>
          <text fill="#E6BF56" font-family="Oxanium-Regular, Oxanium" font-size="9.751" letter-spacing=".176">
            <tspan x="692.443" y="215.919">User Selects </tspan> <tspan x="692.443" y="227.43">&amp; Taps on the </tspan> <tspan x="692.443" y="238.942">Desired Recipe </tspan> <tspan x="692.443" y="250.454">after scrolling </tspan> <tspan x="692.443" y="261.965">through Results</tspan>
          </text>
          <text fill="#E6BF56" font-family="Oxanium-Regular, Oxanium" font-size="9.751" letter-spacing=".176">
            <tspan x="340.794" y="395.598">Components on </tspan> <tspan x="340.794" y="405.598">Detailed Recipe </tspan> <tspan x="340.794" y="415.598">Screen</tspan> <tspan x="340.794" y="425.598">Scrolled Up/Down</tspan>
          </text>
          <text fill="#E6BF56" font-family="Oxanium-Regular, Oxanium" font-size="9.751" letter-spacing=".176">
            <tspan x="576.151" y="251.131">User Selects “Filter</tspan> <tspan x="577.224" y="263.32">Options” (optional)</tspan>
          </text>
          <g transform="translate(421.752 .157)">
            <circle cx="33.824" cy="33.824" r="33.824" fill="#FFE198" transform="translate(.088 .73)"/>
            <text fill="#000" font-family="Oxanium-Bold, Oxanium" font-size="9.751" font-weight="bold" letter-spacing=".176">
              <tspan x="11.728" y="30.06">Welcome</tspan> <tspan x="17.452" y="42.858">Screen</tspan>
            </text>
          </g>
          <path fill="#1B1C1D" fill-rule="nonzero" d="M249.487907 122.937318L242.487907 119.413708 249.487907 115.890098 249.487 119.108 291.327594 119.108986 291.327594 289.143862 281.07 289.143 281.070318 292.36275 274.070318 288.83914 281.070318 285.31553 281.07 288.534 290.718 288.534 290.718 119.718 249.487 119.718 249.487907 122.937318zM77.0152551 119.890098L70.0152551 116.366488 77.0152551 112.842878 77.015 116.061 111.541614 116.061766 111.541614 465.882622 24.603 465.882 24.6030711 469.10151 17.6030711 465.5779 24.6030711 462.05429 24.603 465.273 110.932 465.273 110.932 116.671 77.015 116.671 77.0152551 119.890098zM334.663479 302.162742L338.197319 309.157582 334.977 309.162 335.207562 465.882176 335.208008 466.187344 160.509 466.187 160.509083 469.406232 153.509083 465.882622 160.509083 462.359012 160.509 465.577 334.598 465.577 334.368 309.162 331.150107 309.167886 334.663479 302.162742z"/>
          <path fill="#1B1C1D" fill-rule="nonzero" d="M341.374435 377.075466L334.374435 373.551856 341.374435 370.028246 341.374 373.247 439.28297 373.247134 439.28297 432.363202 343.881 432.363 343.881291 435.58209 336.881291 432.05848 343.881291 428.53487 343.881 431.753 438.673 431.753 438.673 373.856 341.374 373.856 341.374435 377.075466zM197.275883 250.748395L197.276378 251.053117 197.473218 372.205629 197.473713 372.510846 150.757 372.51 150.757979 375.729734 143.757979 372.206124 150.757979 368.682514 150.757 371.901 196.863 371.901 196.666934 251.054107 196.666439 250.749385 197.275883 250.748395z"/>
          <path fill="#1B1C1D" fill-rule="nonzero" d="M216.168496,192.158099 L219.692106,199.158099 L216.473,199.158 L216.473218,373.856578 L203.779,373.856 L203.779607,377.075466 L196.779607,373.551856 L203.779607,370.028246 L203.779,373.247 L215.863,373.247 L215.863,199.158 L212.644886,199.158099 L216.168496,192.158099 Z"/>
          <path fill="#555AC0" d="M455.654102,144.623952 L500.940195,164.908479 C501.554553,165.183662 501.829509,165.904778 501.554326,166.519137 C501.428365,166.800351 501.20057,167.023422 500.916779,167.143463 L455.742099,186.25202 C455.439012,186.380224 455.096963,186.380425 454.793725,186.252578 L409.402638,167.115382 C408.782341,166.85386 408.491496,166.139005 408.753018,165.518708 C408.872995,165.234135 409.096522,165.005715 409.378429,164.879604 L454.658103,144.623716 C454.974988,144.481957 455.337284,144.482043 455.654102,144.623952 Z"/>
          <text fill="#FFF" font-family="Oxanium-Bold, Oxanium" font-size="9.751" font-weight="bold" letter-spacing=".176">
            <tspan x="439.505" y="160.933">Home </tspan> <tspan x="436.979" y="171.294">Screen</tspan>
          </text>
          <text fill="#E6BF56" font-family="OpenSans-Regular, Open Sans" font-size="9.751" letter-spacing="-.234">
            <tspan x="361.109" y="239.723">Setting Filters, </tspan> <tspan x="361.109" y="252.723">Suggestions, </tspan> <tspan x="361.109" y="265.723">Categories&amp; Articles </tspan>
          </text>
          <text fill="#E6BF56" font-family="Oxanium-Regular, Oxanium" font-size="9.751" letter-spacing=".176">
            <tspan x="464.362" y="250.521">Tap on the Filter</tspan> <tspan x="467.902" y="262.71"> Icon (optional)</tspan>
          </text>
          <text fill="#E6BF56" font-family="OpenSans-Regular, Open Sans" font-size="9.751" letter-spacing="-.234">
            <tspan x="362.328" y="187.311">Recommended </tspan> <tspan x="362.328" y="200.311">Recipe Screen </tspan> <tspan x="362.328" y="213.311">With Top </tspan> <tspan x="362.328" y="226.311">Browser bar, </tspan>
          </text>
          <text fill="#E6BF56" font-family="Oxanium-Regular, Oxanium" font-size="9.751" letter-spacing=".176">
            <tspan x="203.263" y="70.735">New Users taps on </tspan> <tspan x="203.263" y="80.735">Skip Icon to Browse</tspan> <tspan x="203.263" y="90.735">without Signing Up</tspan>
          </text>
          <g transform="translate(132.342 68.106)">
            <g transform="translate(175.588)">
              <rect width="94.464" height="27.425" x="267.851" y="206.411" fill="#C2E7F0" fill-opacity=".504" stroke="#6F777A" stroke-width=".609"/>
              <line x1=".914" x2="298.323" y1="24.187" y2="24.187" stroke="#201F1F" stroke-linecap="square" stroke-width=".609"/>
              <path fill="#171515" fill-rule="nonzero" d="M298.62756,23.882772 L298.627,30.069 L301.846448,30.0699849 L298.322838,37.0699849 L294.799228,30.0699849 L298.018,30.069 L298.018116,23.882772 L298.62756,23.882772 Z"/>
              <path fill="#413A3A" fill-rule="nonzero" d="M0.90867683,23.87738 L0.914117427,24.1820534 L1.013,29.762 L4.23212805,29.7041823 L0.834059788,36.7659781 L-2.81396862,29.8300055 L0.404,29.772 L0.304770573,24.1929346 L0.299329976,23.8882612 L0.90867683,23.87738 Z"/>
              <path fill="#221F1F" fill-rule="nonzero" d="M149.923224 61.058856L149.923 69.988 153.142112 69.9885669 149.618502 76.9885669 146.094892 69.9885669 149.313 69.988 149.31378 61.058856 149.923224 61.058856zM356.385706 131.621306L349.385706 128.097696 356.385706 124.574086 356.385 127.792 380.551362 127.792974 380.551516 128.097542 380.597778 219.514142 380.597932 219.819018 369.23 219.819 369.230291 223.037906 362.230291 219.514296 369.230291 215.990686 369.23 219.209 379.988 219.209 379.942 128.402 356.385 128.402 356.385706 131.621306zM234.316224 214.617057L234.243 217.834 261.552 218.451 261.62539 215.233053 268.54415 218.913622 261.46647 222.278481 261.539 219.06 234.23 218.444 234.157304 221.662485 227.238544 217.981916 234.316224 214.617057zM126.655902 216.186616L133.714741 219.590823 126.775599 223.23282 126.72 220.013 107.471 220.341 107.526241 223.559817 100.467402 220.15561 107.406544 216.513614 107.461 219.732 126.71 219.404 126.655902 216.186616zM149.552142.366299825L149.555179.671006688 149.857 30.981 153.076041 30.9493578 149.622378 37.9841316 146.029171 31.0196008 149.248 30.987 148.945765.677081312 148.942728.37237445 149.552142.366299825zM177.575572 320.249581L181.120287 327.238918 177.901 327.248 177.937 339.275 181.156573 339.26515 177.654099 346.27575 174.109385 339.286413 177.328 339.276 177.292 327.25 174.073099 327.260181 177.575572 320.249581z"/>
            </g>
            <text fill="#000" font-family="Oxanium-Bold, Oxanium" font-size="9.751" font-weight="bold" letter-spacing=".176">
              <tspan x="2.451" y="51.385">Community</tspan> <tspan x=".784" y="61.385">Chats/Blogs</tspan>
            </text>
          </g>
          <path fill="#000" fill-rule="nonzero" d="M340.184444,369.64 L348.184444,373.54 L340.184444,377.44 L340.184,373.92 L327.935,373.92 L327.935556,377.44 L319.935556,373.54 L327.935556,369.64 L327.935,373.16 L340.184,373.16 L340.184444,369.64 Z"/>
          <path fill="#221F1F" fill-rule="nonzero" d="M410.776918,369.64264 L410.775,373.162 L437.154133,373.171856 L437.534133,373.171989 L437.533867,373.931989 L437.153867,373.931856 L410.775,373.922 L410.774192,377.44264 L402.775556,373.539845 L410.776918,369.64264 Z"/>
          <path fill="#0F0F0F" fill-rule="nonzero" d="M608.635969,363.37639 L615.635969,366.9 L608.635969,370.42361 L608.635,367.204 L540.772398,367.204722 L540.772398,366.595278 L608.635,366.595 L608.635969,363.37639 Z"/>
          <path fill="#1B1C1D" fill-rule="nonzero" d="M621.858191 351.478818L614.858191 347.955208 621.858191 344.431598 621.858 347.65 632.616234 347.650486 632.616234 404.938222 622.358 404.938 622.358958 408.15711 615.358958 404.6335 622.358958 401.10989 622.358 404.328 632.006 404.328 632.006 348.259 621.858 348.259 621.858191 351.478818zM197.168496 192.158099L200.692106 199.158099 197.473 199.158 197.473218 305.630104 150.757 305.63 150.757979 308.848992 143.757979 305.325382 150.757979 301.801772 150.757 305.02 196.863 305.02 196.863 199.158 193.644886 199.158099 197.168496 192.158099zM214.749599 122.937318L207.749599 119.413708 214.749599 115.890098 214.749 119.108 225.507642 119.108986 225.507642 183.71005 215.25 183.71 215.250366 186.928938 208.250366 183.405328 215.250366 179.881718 215.25 183.1 224.898 183.1 224.898 119.718 214.749 119.718 214.749599 122.937318z"/>
          <path fill="#413A3A" fill-rule="nonzero" d="M334.759141 302.23566L334.764459 302.540336 334.925 311.773 338.14402 311.717185 334.743114 318.777614 331.097874 311.840176 334.315 311.784 334.155108 302.550972 334.14979 302.246297 334.759141 302.23566zM632.167813 302.23566L632.173131 302.540336 632.333 311.773 635.552692 311.717185 632.151786 318.777614 628.506546 311.840176 631.724 311.784 631.56378 302.550972 631.558462 302.246297 632.167813 302.23566z"/>
          <text fill="#E6BF56" font-family="Oxanium-Regular, Oxanium" font-size="10.835" letter-spacing=".195">
            <tspan x="462.12" y="82.72">Tap on Log In/Sign Up Buttons </tspan>
          </text>
          <text fill="#131312" font-family="OpenSans-Bold, Open Sans" font-size="12.189" font-weight="bold" letter-spacing="-.293">
            <tspan x=".032" y="486.092">Exit Point</tspan>
          </text>
          <rect width="104.96" height="26.409" x="698.199" y="271.609" fill="#C2E7F0" fill-opacity=".504" stroke="#6F777A" stroke-width=".677"/>
          <text fill="#000" font-family="Oxanium-Bold, Oxanium" font-size="10.835" font-weight="bold" letter-spacing=".195">
            <tspan x="730.646" y="285.974">Sign Up</tspan>
          </text>
          <path fill="#000" fill-rule="nonzero" d="M773.072385 297.536356L776.953385 305.536356 773.448 305.536 773.448585 327.173224 773.073082 327.173919 483.43 327.71 483.774563 359.673553 483.778611 360.049731 483.026254 360.057826 483.022207 359.681647 482.674222 327.339196 482.670138 326.959653 483.049703 326.958949 772.696 326.422 772.696 305.536 769.191385 305.536356 773.072385 297.536356zM504.117687 165.9346L779.496087 165.998055 779.8722 165.998142 779.872 264.091 783.377 264.091244 779.496 272.091244 775.615 264.091244 779.119 264.091 779.119 166.75 504.117513 166.687 503.741313 166.686913 503.741487 165.934513 504.117687 165.9346z"/>
          <text fill="#131312" font-family="OpenSans-Bold, Open Sans" font-size="12.189" font-weight="bold" letter-spacing="-.293">
            <tspan x="350.4" y="41.88">Entry Point</tspan>
          </text>
        </g>
        <text fill="#E6BF56" font-family="Oxanium-Regular, Oxanium" font-size="10.835" letter-spacing=".195">
          <tspan x="202.96" y="325.54">User clicks on </tspan> <tspan x="202.96" y="336.54">items in ingredients List </tspan> <tspan x="202.96" y="347.54">to be added to the </tspan> <tspan x="202.96" y="358.54">shopping list</tspan>
        </text>
        <rect width="70.071" height="54.871" x="31.505" y="145.085" fill="#F1F1F1" fill-opacity=".504" stroke="#6F777A" stroke-width=".609"/>
        <text fill="#000" font-family="Oxanium-Bold, Oxanium" font-size="9.751" font-weight="bold" letter-spacing=".176">
          <tspan x="46.394" y="165.026">RETURN </tspan> <tspan x="43.8" y="175.386">REQUEST</tspan>
        </text>
        <path fill="#000" fill-rule="nonzero" d="M84.02 199.521132L87.92 207.521132 84.4 207.521 84.4 249.018 87.92 249.01862 84.02 257.01862 80.12 249.01862 83.64 249.018 83.64 207.521 80.12 207.521132 84.02 199.521132zM427.2961 206.335331L435.2961 210.235331 427.2961 214.135331 427.296 210.615 197.351 210.615 197.351 355.439 200.871656 355.439776 196.971656 363.439776 193.071656 355.439776 196.591 355.439 196.591656 209.855331 427.296 209.855 427.2961 206.335331z"/>
        <rect width="54.871" height="23.711" x="349.258" y="378.405" fill="#FFF" stroke="#6F777A" stroke-width=".609"/>
        <text fill="#000" font-family="Oxanium-Bold, Oxanium" font-size="9.751" font-weight="bold" letter-spacing=".176">
          <tspan x="354.269" y="386.1">PRODUCT </tspan> <tspan x="365.63" y="396.461">INFO</tspan>
        </text>
        <rect width="102.751" height="39.671" x="216.258" y="427.045" fill="#FFF" stroke="#6F777A" stroke-width=".609"/>
        <text fill="#000" font-family="Oxanium-Bold, Oxanium" font-size="9.751" font-weight="bold" letter-spacing=".176">
          <tspan x="246.77" y="443.186">BROWSE </tspan> <tspan x="248.916" y="453.546">OFFERS</tspan>
        </text>
        <rect width="102.751" height="39.671" x="216.258" y="370.805" fill="#FFF" stroke="#6F777A" stroke-width=".609"/>
        <text fill="#000" font-family="Oxanium-Bold, Oxanium" font-size="9.751" font-weight="bold" letter-spacing=".176">
          <tspan x="249.579" y="386.946">SELECT </tspan> <tspan x="244.879" y="397.306">GROCERY </tspan>
        </text>
        <rect width="102.751" height="54.871" x="679.858" y="95.685" fill="#F1F1F1" fill-opacity=".504" stroke="#6F777A" stroke-width=".609"/>
        <text fill="#000" font-family="Oxanium-Bold, Oxanium" font-size="9.751" font-weight="bold" letter-spacing=".176">
          <tspan x="698.298" y="115.626">SET UP / EDIT </tspan> <tspan x="707.786" y="125.986">ACCOUNT</tspan> <tspan x="711.219" y="136.347">DETAILS</tspan>
        </text>
        <path fill="#000" fill-rule="nonzero" d="M779.42 150.121132L783.32 158.121132 779.8 158.121 779.8 182.865576 779.04 182.865576 779.04 158.121 775.52 158.121132 779.42 150.121132zM671.966667 100.746309L679.997694 104.582011 672.029236 108.546058 672.001 105.026 639.58 105.286 639.58 110.71 643.1 110.71002 639.2 118.71002 635.3 110.71002 638.82 110.71 638.82 104.532321 639.196952 104.529297 671.994 104.266 671.966667 100.746309zM267.94 410.715556L271.84 418.715556 268.319 418.715 268.319 418.804 271.84 418.804444 267.94 426.804444 264.04 418.804444 267.559 418.804 267.559 418.715 264.04 418.715556 267.94 410.715556z"/>
        <path fill="#272222" fill-rule="nonzero" d="M96.94 280.755556L100.84 288.755556 97.319 288.755 97.319 302.524 100.84 302.524444 96.94 310.524444 93.04 302.524444 96.559 302.524 96.559 288.755 93.04 288.755556 96.94 280.755556zM205.24 209.695556L209.14 217.695556 205.619 217.695 205.619 246.24 247.084 246.24 247.084444 242.72 255.084444 246.62 247.084444 250.52 247.084 247 204.86 247 204.859 217.695 201.34 217.695556 205.24 209.695556z"/>
        <path fill="#100F0F" fill-rule="nonzero" d="M734.96,-0.38 L734.96,87.824 L738.48,87.8244444 L734.58,95.8244444 L730.68,87.8244444 L734.2,87.824 L734.2,0.38 L59.204,0.38 L59.314,137.604 L62.8339978,137.601349 L58.940353,145.604444 L55.0340003,137.607544 L58.554,137.604 L58.4447081,0.000301811423 L58.4444061,-0.38 L734.96,-0.38 Z"/>
      </g>
      <path fill="#1A1919" fill-rule="nonzero" d="M62.32,-0.38 L62.32,0.38 L1.26,0.38 L1.26,268.66 L44.504,268.66 L44.5044444,265.14 L52.5044444,269.04 L44.5044444,272.94 L44.504,269.42 L0.500308,269.42 L0.500308,-0.38 L62.32,-0.38 Z"/>
      <rect width="99.436" height="30.793" x="444.321" y="375.321" fill="#C2E7F0" fill-opacity=".504" stroke="#6F777A" stroke-width=".642"/>
      <text fill="#000" font-family="Oxanium-Bold, Oxanium" font-size="10.264" font-weight="bold" letter-spacing=".185">
        <tspan x="454.379" y="391">Detailed Recipe </tspan> <tspan x="476.673" y="401">Screen</tspan>
      </text>
    </g>
    <text fill="#000" font-family="Oxanium-Bold, Oxanium" font-size="10.264" font-weight="bold" letter-spacing=".185">
      <tspan x="636.998" y="317">Filtered Search </tspan> <tspan x="656.521" y="327.906">Results</tspan>
    </text>
  </g>
</svg>
