<svg xmlns="http://www.w3.org/2000/svg" width="83" height="72" viewBox="0 0 83 72">
  <g fill="none">
    <path fill="#001934" d="M79.7142857,18 C79.7142857,15.1596784 77.4117501,12.8571429 74.5714286,12.8571429 L2.57142857,12.8571429 L2.57142857,64.2857143 C2.57142857,67.1260359 4.87396414,69.4285714 7.71428571,69.4285714 L74.5714286,69.4285714 C77.4117501,69.4285714 79.7142857,67.1260359 79.7142857,64.2857143 L79.7142857,18 Z"/>
    <path fill="#54B0FF" d="M74.5714286,10.2857143 L47.1874286,10.2857143 C46.8451238,10.295954 46.5155402,10.155599 46.2857143,9.90171429 L38.3142857,1.93028571 C37.1403405,0.701054198 35.5157477,0.00391565797 33.816,0 L7.71428571,0 C3.45927316,0.013176422 0.013176422,3.45927316 0,7.71428571 L0,64.2857143 C0.013176422,68.5407268 3.45927316,71.9868236 7.71428571,72 L74.5714286,72 C78.8264411,71.9868236 82.2725379,68.5407268 82.2857143,64.2857143 L82.2857143,18 C82.2725379,13.7449874 78.8264411,10.2988907 74.5714286,10.2857143 Z M79.7142857,64.2857143 C79.7142857,67.1260359 77.4117501,69.4285714 74.5714286,69.4285714 L7.71428571,69.4285714 C4.87396414,69.4285714 2.57142857,67.1260359 2.57142857,64.2857143 L2.57142857,12.8571429 L74.5714286,12.8571429 C77.4117501,12.8571429 79.7142857,15.1596784 79.7142857,18 L79.7142857,64.2857143 Z"/>
    <path fill="#D9ECFF" d="M27.2468571 28.7725714C27.2468571 28.6285714 27.2948571 28.5085714 27.4868571 28.5085714 28.9988571 28.4365714 31.2068571 28.3885714 33.5108571 28.3885714 39.9908571 28.3885714 42.8228571 31.9405714 42.8228571 36.5005714 42.8228571 42.4525714 38.5268571 44.9965714 33.2468571 44.9965714 32.3588571 44.9965714 32.0468571 44.9485714 31.4228571 44.9485714L31.4228571 53.9485714C31.4228571 54.1405714 31.3508571 54.2125714 31.1588571 54.2125714L27.5348571 54.2125714C27.3428571 54.2125714 27.2708571 54.1405714 27.2708571 53.9485714L27.2708571 28.7725714 27.2468571 28.7725714zM31.4228571 41.2045714C31.9748571 41.2525714 32.3828571 41.2525714 33.3188571 41.2525714 36.0617143 41.2525714 38.6228571 40.2925714 38.6228571 36.5725714 38.6228571 33.5965714 36.7988571 32.0845714 33.6788571 32.0845714 32.7428571 32.0845714 31.8548571 32.1325714 31.4468571 32.1565714L31.4468571 41.2045714 31.4228571 41.2045714zM45.3428571 39.5485714C45.1988571 39.5485714 45.1508571 39.4765714 45.1508571 39.2845714L45.1508571 36.0925714C45.1508571 35.9005714 45.1988571 35.8525714 45.3428571 35.8525714L47.5028571 35.8525714 47.5028571 34.6525714C47.4633131 33.3694783 47.7264108 32.0950988 48.2708571 30.9325714 49.2308571 28.9645714 50.8868571 28.0765714 53.2148571 28.0765714 53.7499764 28.0488109 54.285867 28.1137674 54.7988571 28.2685714 54.9908571 28.3405714 55.0388571 28.4125714 55.0388571 28.6114286L55.0388571 31.6971429C55.0388571 31.8891429 54.9668571 31.9611429 54.7748571 31.9371429 54.4368007 31.8632943 54.092263 31.8230983 53.7462857 31.8171429 52.4022857 31.8171429 51.7302857 32.7771429 51.7302857 34.6491429L51.7302857 35.8491429 54.7782857 35.8491429C54.9702857 35.8491429 55.0182857 35.8971429 55.0182857 36.0411429L55.0182857 39.2571429C55.0182857 39.4491429 54.9702857 39.4971429 54.7782857 39.5211429L51.7302857 39.5211429 51.7302857 53.9451429C51.7302857 54.0891429 51.6822857 54.2091429 51.4662857 54.2091429L47.7908571 54.2091429C47.718764 54.216798 47.647074 54.1914543 47.5958098 54.1401902 47.5445457 54.088926 47.519202 54.017236 47.5268571 53.9451429L47.5268571 39.5245714 45.3428571 39.5245714 45.3428571 39.5485714z"/>
  </g>
</svg>
