<svg xmlns="http://www.w3.org/2000/svg" width="72" height="72" viewBox="0 0 72 72">
  <g fill="none">
    <path fill="#0078B5" d="M36,72 L36,72 C16.1208,72 0,55.8792 0,36 L0,36 C0,16.1208 16.1208,0 36,0 L36,0 C55.8792,0 72,16.1208 72,36 L72,36 C72,55.8792 55.8792,72 36,72 Z"/>
    <path fill="#FFF" d="M.8064 15.3576L10.3752 15.3576 10.3752 46.152.8064 46.152.8064 15.3576zM5.5944.0504C8.6544.0504 11.1384 2.5344 11.1384 5.6016 11.1384 8.6688 8.6544 11.1528 5.5944 11.1528 2.5272 11.1528.0431843873 8.6688.0431843873 5.6016.036 2.5416 2.52.0504 5.5944.0504M16.38 15.3576L25.56 15.3576 25.56 19.5624 25.6896 19.5624C26.964 17.1432 30.0816 14.5872 34.7472 14.5872 44.4384 14.5872 46.2312 20.9664 46.2312 29.2536L46.2312 46.152 36.6624 46.152 36.6624 31.1832C36.6624 27.6048 36.5976 23.0184 31.6872 23.0184 26.7048 23.0184 25.9416 26.9064 25.9416 30.924L25.9416 46.1592 16.38 46.1592 16.38 15.3576z" transform="translate(12.456 12.528)"/>
  </g>
</svg>
